<?xml version="1.0" standalone="no"?>
<!DOCTYPE svg PUBLIC "-//W3C//DTD SVG 20010904//EN"
 "http://www.w3.org/TR/2001/REC-SVG-20010904/DTD/svg10.dtd">
<svg version="1.0" xmlns="http://www.w3.org/2000/svg"
 width="1024.000000pt" height="1024.000000pt" viewBox="0 0 1024.000000 1024.000000"
 preserveAspectRatio="xMidYMid meet">
<metadata>
Created by potrace 1.14, written by Peter Selinger 2001-2017
</metadata>
<g transform="translate(0.000000,1024.000000) scale(0.100000,-0.100000)"
fill="#000000" stroke="none">
<path d="M4760 9079 c-745 -80 -1364 -309 -1935 -717 -160 -115 -205 -151
-373 -305 -403 -369 -752 -858 -957 -1342 -218 -511 -324 -985 -341 -1515 -28
-906 233 -1782 739 -2480 505 -699 1169 -1191 1982 -1470 305 -105 559 -161
890 -196 207 -22 677 -14 885 14 729 101 1393 371 1960 796 418 313 772 721
1060 1221 305 530 471 1149 496 1855 24 675 -141 1383 -468 2010 -293 562
-702 1032 -1238 1422 -246 179 -577 352 -900 471 -296 110 -577 179 -907 223
-139 19 -757 28 -893 13z m880 -138 c193 -26 323 -51 515 -101 156 -41 359
-107 432 -140 24 -11 45 -20 48 -20 6 0 31 -11 145 -62 111 -49 189 -92 184
-99 -3 -5 3 -6 12 -2 12 4 15 3 10 -5 -4 -8 -2 -10 8 -6 8 3 36 -7 61 -22 35
-20 43 -29 33 -36 -9 -7 -8 -8 5 -4 11 3 38 -5 65 -21 70 -40 75 -44 60 -56
-9 -6 -8 -7 5 -3 11 4 47 -14 100 -49 135 -90 202 -140 202 -152 0 -6 4 -15 9
-20 5 -5 6 -3 2 5 -14 23 7 12 63 -35 31 -26 58 -48 60 -50 2 -2 1 -6 -2 -10
-4 -3 -19 4 -35 18 l-27 24 24 -28 c16 -17 31 -25 42 -22 26 9 487 -453 508
-508 2 -5 -1 -7 -6 -4 -5 3 -15 1 -23 -4 -11 -7 -7 -8 12 -5 23 4 33 -2 53
-28 35 -46 31 -57 -6 -17 -17 19 -30 28 -29 20 1 -8 2 -22 1 -33 -1 -15 -4
-16 -16 -6 -16 14 -18 10 -9 -14 3 -9 11 -13 17 -9 7 4 26 8 44 9 26 1 36 -6
60 -38 15 -21 39 -54 53 -72 24 -30 79 -116 165 -251 64 -101 86 -145 79 -156
-4 -7 -3 -9 3 -6 13 8 124 -214 188 -379 15 -38 33 -83 41 -101 8 -17 14 -37
14 -45 0 -8 3 -17 6 -21 12 -12 52 -136 46 -142 -4 -3 -2 -9 4 -13 15 -10 47
-120 40 -138 -4 -10 -2 -13 6 -8 7 5 9 -1 6 -19 -3 -15 -2 -24 2 -22 4 3 19
-46 33 -108 39 -168 47 -216 50 -284 1 -35 5 -63 8 -63 4 0 9 -26 11 -57 4
-50 2 -61 -16 -77 -18 -17 -19 -18 -2 -12 16 5 18 3 12 -21 -18 -82 -19 -124
-3 -136 14 -10 15 -19 6 -52 -21 -81 -22 -94 -5 -101 13 -5 16 -22 16 -85 0
-53 4 -79 12 -79 26 0 -23 -498 -73 -740 -24 -121 -86 -354 -105 -400 -8 -19
-13 -25 -10 -13 2 13 0 26 -5 29 -5 3 -9 -2 -9 -10 0 -20 -21 -66 -29 -62 -3
2 -7 -12 -8 -32 l-2 -36 21 42 c12 23 23 40 25 38 6 -6 -58 -171 -67 -174 -6
-2 -8 -7 -5 -12 7 -11 -88 -240 -100 -240 -5 0 8 33 36 94 12 25 11 30 -5 41
-10 8 -18 24 -18 37 0 13 1 48 1 78 1 79 -1 89 -15 83 -9 -3 -11 -23 -7 -72 4
-50 2 -75 -10 -97 l-16 -29 3 35 c2 19 -1 41 -7 47 -5 7 -6 24 -3 39 5 18 3
24 -5 19 -6 -4 -16 -1 -21 6 -7 10 -8 9 -4 -6 3 -12 -3 -30 -14 -45 l-20 -25
7 35 c3 19 15 58 26 85 19 50 67 198 106 330 31 106 83 350 102 480 44 311 49
676 14 1035 -8 76 -28 187 -71 380 -22 97 -21 96 -16 86 2 -4 8 -2 13 5 6 9 7
1 4 -21 -3 -19 -3 -29 1 -22 3 6 10 12 15 12 6 0 5 -9 -2 -21 -7 -13 -7 -24
-2 -28 6 -3 13 -13 17 -21 3 -8 4 -4 2 9 -6 32 4 82 15 75 5 -3 10 5 10 18 1
13 2 35 3 51 1 15 -2 27 -6 27 -8 0 -11 -10 -12 -49 -1 -13 -7 -26 -14 -28 -7
-3 -10 1 -6 10 3 8 -2 17 -10 20 -9 4 -16 15 -16 26 0 11 -4 23 -10 26 -6 4
-7 -5 -4 -23 3 -16 2 -32 -4 -36 -8 -5 -36 83 -57 184 -5 22 -4 22 4 5 7 -14
10 -15 10 -5 2 26 21 -11 21 -40 0 -23 1 -23 17 -7 16 16 16 18 -5 37 -15 15
-22 33 -23 63 -1 40 -2 40 -9 12 -7 -28 -8 -28 -9 -5 -1 14 -9 34 -17 45 -14
19 -15 17 -8 -20 10 -57 1 -42 -30 50 -15 44 -32 88 -37 97 -13 26 -11 32 6
18 8 -7 15 -19 15 -26 0 -8 5 -14 10 -14 13 0 13 2 -5 36 -8 16 -15 38 -15 49
-1 30 -26 59 -46 51 -13 -5 -14 -3 -7 6 10 13 -12 86 -23 75 -3 -3 0 -15 6
-27 6 -11 10 -25 8 -30 -2 -5 -11 9 -20 31 -9 21 -12 37 -7 34 5 -4 10 6 10
22 1 21 3 23 6 8 10 -41 20 -35 13 7 -6 32 -5 47 6 59 8 9 11 19 7 22 -9 9
-33 9 -31 0 0 -5 -4 -19 -10 -33 -6 -14 -11 -19 -11 -12 -1 7 -6 10 -11 7 -8
-5 -7 -11 0 -21 7 -7 10 -18 8 -25 -3 -10 -12 4 -33 51 -3 8 -18 36 -33 61
-15 25 -35 61 -46 80 -10 19 -43 73 -72 120 -30 47 -54 92 -54 100 1 8 8 1 16
-14 9 -16 18 -27 21 -24 2 3 0 14 -6 25 -17 31 -13 50 5 27 l16 -20 -4 20 c-3
14 -11 19 -26 18 -25 -3 -46 28 -37 56 4 12 12 17 24 14 10 -3 22 0 25 6 5 7
-5 11 -28 11 -20 0 -35 -3 -35 -7 4 -22 -2 -33 -13 -27 -8 5 -9 1 -4 -12 5
-14 4 -16 -4 -8 -9 9 -9 17 -1 31 8 17 6 22 -15 33 -13 8 -23 19 -20 26 2 6 0
16 -6 22 -6 6 -11 29 -12 52 0 34 -2 37 -10 21 -12 -27 -29 -28 -21 -2 6 21
-27 47 -45 36 -11 -7 -2 -26 31 -64 17 -21 22 -22 30 -10 7 10 8 5 3 -15 -5
-21 -4 -27 5 -22 7 4 11 0 11 -11 0 -16 -1 -16 -19 2 -10 11 -42 54 -70 95
-29 41 -41 62 -27 47 19 -20 26 -24 26 -12 0 9 5 13 11 10 7 -5 9 3 7 21 -2
17 -10 28 -22 30 -10 1 -28 12 -41 24 -23 22 -43 13 -30 -12 8 -15 -25 19
-134 141 -42 47 -114 121 -161 165 -46 45 -108 104 -137 132 -29 28 -54 49
-56 47 -2 -1 -14 8 -26 21 -17 18 -19 26 -10 31 8 6 10 4 4 -5 -6 -9 -4 -11 4
-5 9 5 10 10 2 18 -7 7 -14 7 -24 -2 -11 -9 -17 -8 -26 3 -10 11 -9 16 4 24
23 12 16 57 -7 56 -10 -1 -16 2 -13 6 3 5 -5 10 -17 12 -19 2 -24 10 -26 41
-2 20 -7 37 -13 37 -5 0 -9 5 -9 10 0 6 5 10 11 10 16 0 36 23 36 43 0 18 -22
23 -32 7 -8 -13 -42 -13 -47 1 -4 12 -38 1 -38 -12 0 -5 14 -9 30 -9 24 0 30
-4 30 -21 0 -11 -5 -29 -10 -39 -8 -15 -6 -21 7 -29 10 -6 13 -11 6 -11 -20 0
-43 12 -38 21 10 15 -34 31 -53 19 -16 -11 -16 -11 0 -6 20 6 34 -10 16 -17
-8 -3 -6 -7 7 -12 11 -4 35 -22 53 -39 25 -24 35 -28 41 -17 5 8 11 9 15 3 3
-6 0 -13 -6 -16 -7 -3 -3 -3 9 0 17 4 22 1 20 -16 -1 -11 -3 -20 -6 -20 -5 0
-64 44 -83 63 -26 25 -255 173 -360 233 -59 33 -104 65 -100 69 4 5 1 5 -5 1
-7 -4 -21 -2 -30 3 -15 9 -13 10 14 11 20 0 36 -6 42 -17 7 -12 10 -13 11 -4
0 9 8 11 28 7 19 -4 23 -4 12 3 -9 5 -22 11 -30 13 -18 4 -39 21 -34 29 3 6
-15 9 -51 9 -11 1 -38 7 -60 16 -29 11 -32 14 -12 11 17 -3 27 0 27 9 0 16
-12 24 -43 26 -17 2 -23 7 -19 17 3 9 1 12 -6 7 -6 -3 -14 -1 -17 4 -4 6 -17
10 -28 9 -36 -2 -48 1 -43 10 4 5 -3 7 -14 4 -12 -3 -20 0 -20 6 0 7 -5 9 -10
6 -6 -4 -7 -11 -4 -17 8 -13 -39 12 -48 25 -8 13 -68 15 -75 3 -4 -5 -1 -6 5
-2 7 4 12 1 12 -8 0 -11 10 -15 35 -14 19 1 38 -1 41 -5 8 -8 -4 -27 -17 -27
-6 0 -7 5 -3 11 4 6 -1 9 -12 8 -11 -2 -53 8 -94 23 -91 32 -289 92 -350 106
-44 11 -44 11 -5 6 29 -3 36 -2 25 5 -12 9 -10 11 12 11 14 0 28 -5 30 -10 4
-13 74 -39 106 -40 12 0 22 5 22 12 0 6 7 19 15 29 14 15 14 18 -2 35 -17 17
-18 17 -21 -9 -3 -21 -9 -27 -28 -27 -17 0 -24 6 -24 19 0 11 -9 21 -22 25
-35 9 -88 7 -88 -3 0 -15 -61 -31 -119 -31 -56 1 -56 1 -26 15 l30 14 -29 -6
c-22 -4 -28 -2 -24 8 2 8 20 15 39 17 19 2 38 8 44 13 5 5 26 9 47 9 21 0 38
5 38 10 0 6 -21 10 -46 10 -25 0 -43 -3 -40 -8 2 -4 -13 -7 -35 -7 -21 0 -39
3 -39 7 0 5 -13 8 -30 8 -16 0 -30 -4 -30 -9 0 -5 -24 -11 -54 -13 -43 -2 -57
1 -65 14 -6 9 -18 18 -28 21 -17 4 -7 3 81 -10 27 -4 37 -2 32 6 -4 6 -20 11
-37 11 -16 0 -29 5 -29 11 0 7 -13 9 -37 5 -21 -3 -62 -9 -92 -12 l-54 -7 37
-18 c37 -18 83 -16 54 2 -9 6 -9 9 -1 9 20 0 26 -20 8 -26 -13 -6 -14 -9 -3
-16 8 -6 -3 -8 -32 -4 -25 3 -81 8 -125 12 -74 7 -77 8 -40 15 22 4 51 8 65 7
l25 0 -25 -7 c-17 -5 -7 -7 33 -7 l59 0 -39 12 c-21 6 -60 18 -88 27 -27 8
-54 11 -60 7 -5 -5 -21 -10 -35 -13 -14 -2 0 -5 30 -7 l55 -3 -43 -7 c-24 -3
-170 -5 -323 -4 -153 2 -279 0 -279 -4 0 -4 -17 -8 -37 -8 -21 0 -47 -4 -58
-8 -19 -7 -19 -7 -2 7 9 8 40 17 68 21 59 8 57 21 -4 29 -50 7 -128 -10 -107
-23 20 -13 -77 -17 -160 -6 -41 5 -189 9 -328 10 l-253 1 58 18 c187 57 478
114 698 137 163 17 198 18 485 14 206 -2 314 -8 430 -23z m-817 -148 c-7 -2
-19 -2 -25 0 -7 3 -2 5 12 5 14 0 19 -2 13 -5z m-116 -29 c-3 -3 -12 -4 -19
-1 -8 3 -5 6 6 6 11 1 17 -2 13 -5z m1030 -10 c-3 -3 -12 -4 -19 -1 -8 3 -5 6
6 6 11 1 17 -2 13 -5z m140 -27 c7 0 10 -4 7 -9 -3 -4 0 -8 7 -8 7 0 10 -2 8
-5 -3 -2 -48 4 -100 14 l-94 19 80 -5 c44 -3 85 -6 92 -6z m-1287 -82 c206
-31 372 -81 532 -161 115 -57 149 -81 231 -162 91 -89 148 -202 155 -306 l4
-71 92 0 c84 0 97 -3 160 -34 94 -46 174 -127 218 -221 51 -107 68 -194 68
-354 0 -142 -13 -189 -23 -83 -9 90 -51 228 -104 336 -60 123 -152 218 -268
278 -44 22 -96 46 -116 52 -33 11 -38 18 -58 77 -28 85 -63 135 -153 218 -151
141 -367 234 -665 287 -168 31 -513 38 -673 15 -358 -52 -558 -151 -820 -402
-124 -118 -160 -148 -160 -129 0 3 13 35 30 71 116 257 390 458 755 553 69 18
218 43 330 55 78 8 361 -3 465 -19z m860 -5 c829 -64 1556 -386 2146 -953 395
-379 692 -813 877 -1282 264 -668 331 -1343 203 -2036 -61 -328 -162 -644
-290 -904 -43 -87 -56 -106 -62 -90 -4 11 -20 52 -36 91 l-29 71 31 71 c70
165 156 471 209 742 56 287 79 612 61 850 -14 176 -13 169 -21 164 -4 -2 -6
-32 -4 -67 2 -34 1 -50 -2 -34 -2 15 -8 27 -13 27 -4 0 -6 -10 -2 -22 4 -15 2
-19 -7 -14 -8 5 -14 0 -18 -14 -4 -16 -8 -18 -14 -8 -7 10 -9 9 -9 -4 0 -10
-4 -18 -10 -18 -5 0 -10 -9 -10 -20 0 -11 5 -20 11 -20 6 0 9 7 6 15 -4 8 -2
17 3 20 6 4 10 2 10 -4 0 -5 3 -16 6 -25 4 -10 1 -16 -9 -16 -20 0 -30 -16
-21 -32 5 -7 11 -5 21 7 7 11 13 14 13 8 0 -18 -26 -34 -45 -27 -15 6 -16 3
-10 -17 l7 -24 -21 24 c-19 22 -21 22 -22 5 0 -18 -1 -18 -9 1 -8 18 -9 17 -9
-7 -1 -15 4 -30 9 -33 6 -3 10 -1 10 6 0 7 3 9 7 6 3 -4 -3 -18 -16 -30 -13
-15 -19 -30 -15 -40 3 -10 1 -17 -5 -17 -6 0 -11 8 -11 18 0 10 -4 22 -9 28
-5 5 -11 18 -13 29 -3 16 -5 15 -10 -7 -3 -15 -1 -25 3 -22 5 3 9 -1 9 -10 0
-8 -6 -17 -12 -20 -10 -5 -10 -7 0 -12 6 -3 12 -12 12 -20 0 -8 9 -13 21 -11
12 1 24 -5 26 -13 4 -12 3 -13 -5 -1 -5 7 -15 10 -21 6 -7 -4 -19 -1 -28 7
-14 11 -15 10 -8 -11 4 -13 9 -42 11 -64 4 -39 3 -39 -15 -23 -18 16 -19 16
-30 -15 -14 -40 -23 -34 -12 7 6 21 14 29 29 28 25 -1 24 -1 16 20 -3 9 -13
16 -21 16 -8 0 -11 -4 -8 -10 4 -6 -7 -10 -24 -10 -17 0 -31 5 -31 11 0 8 -5
8 -15 -1 -8 -7 -15 -19 -15 -26 0 -8 -5 -14 -10 -14 -7 0 -6 -8 2 -22 7 -13
13 -30 14 -38 2 -23 -30 -22 -44 1 -15 24 -4 25 14 2 11 -15 13 -15 13 -3 0
25 -24 51 -36 39 -8 -8 -13 -7 -18 2 -6 8 -4 10 5 4 10 -6 12 -4 7 9 -10 25
22 86 42 78 14 -5 14 -3 3 11 -17 20 -6 61 14 53 8 -3 14 -1 14 3 0 5 -4 11
-9 13 -9 3 45 128 55 128 4 0 3 -8 0 -17 -4 -10 -4 -14 1 -10 4 5 9 26 10 49
2 33 -4 49 -33 89 -77 106 -187 158 -349 166 -109 6 -224 -15 -310 -57 l-41
-20 -63 25 c-136 55 -221 70 -416 69 -201 -1 -318 -20 -428 -72 l-59 -27 -67
31 c-84 40 -192 58 -296 50 -44 -3 -91 -9 -105 -13 -23 -6 -23 -5 12 43 110
151 160 366 128 552 -24 144 -115 273 -227 323 -26 12 -55 25 -63 29 -29 15
-14 114 34 220 80 176 123 317 157 510 20 113 18 397 -4 489 -22 89 -70 197
-120 267 -35 48 -124 126 -176 154 l-24 12 37 23 c20 12 75 35 122 51 46 16
84 32 84 36 0 4 -30 16 -66 28 -116 35 -239 23 -355 -36 l-47 -23 -6 42 c-12
77 -66 172 -163 284 -37 43 -222 160 -312 198 -39 17 -71 32 -71 35 0 8 237 1
390 -10z m1180 -127 c3 -3 -9 -2 -25 1 -17 3 -24 3 -17 0 6 -3 12 -10 12 -15
0 -5 -10 -4 -22 3 -13 7 -27 11 -31 10 -5 -1 -6 2 -2 7 3 6 12 8 20 4 8 -3 15
0 15 6 0 9 6 9 23 0 12 -6 24 -14 27 -16z m60 -51 c19 -9 40 -17 45 -18 28 -4
54 -17 59 -30 4 -10 1 -11 -12 -4 -9 5 -51 23 -92 41 -41 17 -77 34 -80 36 -8
9 42 -7 80 -25z m-3583 -77 c-21 -20 -43 -33 -49 -29 -7 5 -9 2 -5 -8 3 -10
-10 -37 -34 -69 -21 -29 -39 -48 -39 -43 0 6 7 19 15 30 8 10 14 24 14 29 1 6
-8 -1 -19 -15 -13 -17 -20 -20 -20 -10 0 13 -2 13 -9 0 -6 -8 -7 -18 -4 -23 3
-5 -4 -4 -15 2 -17 9 -28 5 -69 -24 -26 -20 -56 -38 -66 -42 -11 -3 -16 -12
-13 -20 4 -8 1 -13 -5 -11 -6 2 -11 8 -12 13 -1 15 203 156 215 149 6 -4 8 -3
5 4 -6 8 124 102 142 102 3 0 -12 -16 -32 -35z m-183 -151 c9 -3 14 -10 11
-15 -7 -10 -35 0 -35 12 0 11 3 11 24 3z m46 -23 c0 -5 -6 -16 -13 -23 -8 -7
-16 -20 -20 -28 -4 -11 -6 -10 -6 4 -1 11 7 27 17 37 20 21 22 22 22 10z m-60
-10 c0 -6 -4 -13 -10 -16 -5 -3 -10 1 -10 9 0 9 5 16 10 16 6 0 10 -4 10 -9z
m1205 -1 l-20 -9 20 -1 c11 -1 -59 -28 -155 -59 -96 -32 -258 -91 -360 -131
-329 -129 -443 -160 -585 -160 -79 0 -185 17 -185 29 0 3 37 7 83 9 159 6 324
51 668 185 140 55 256 91 388 120 107 24 182 33 146 17z m-1268 -20 c-14 -11
-29 -20 -34 -20 -10 1 39 39 51 40 5 0 -3 -9 -17 -20z m28 -10 c-3 -5 -12 -10
-18 -10 -7 0 -6 4 3 10 19 12 23 12 15 0z m-97 -28 c2 -7 -3 -12 -12 -12 -18
0 -21 -15 -6 -25 31 -19 -27 -53 -61 -35 -12 7 -19 7 -19 1 0 -5 8 -12 18 -14
13 -4 14 -5 1 -6 -8 0 -23 5 -32 12 -15 11 -12 16 35 54 53 42 68 47 76 25z
m25 -57 c4 -8 3 -16 -1 -19 -4 -3 -9 4 -9 15 -2 23 3 25 10 4z m-56 -41 c-3
-3 -12 -4 -19 -1 -8 3 -5 6 6 6 11 1 17 -2 13 -5z m90 0 c-3 -3 -12 -4 -19 -1
-8 3 -5 6 6 6 11 1 17 -2 13 -5z m-233 -169 c32 -67 30 -76 -23 -129 -28 -28
-54 -46 -58 -42 -5 5 -3 11 4 13 7 2 9 12 6 20 -5 12 -2 15 10 10 20 -8 44 18
26 29 -7 4 -9 3 -5 -4 3 -6 2 -13 -4 -17 -6 -3 -13 0 -16 8 -3 9 -14 12 -29 9
-18 -3 -27 -14 -35 -41 -12 -45 -13 -54 0 -46 6 3 10 1 10 -6 0 -8 5 -8 18 2
13 11 13 8 -3 -11 -43 -54 -56 -64 -67 -49 -7 11 -8 9 -6 -8 2 -12 -10 -37
-29 -60 -18 -21 -62 -76 -98 -123 -37 -47 -72 -84 -79 -82 -7 1 -12 -7 -12
-19 1 -30 -16 -34 -32 -8 -12 18 -10 23 13 45 21 20 30 22 41 13 8 -6 14 -7
14 -2 0 4 12 22 28 39 15 16 41 48 59 70 31 39 31 40 13 64 -10 14 -21 22 -25
19 -3 -4 1 -14 10 -23 9 -9 13 -21 9 -27 -4 -8 -9 -7 -16 2 -7 10 -8 8 -3 -7
4 -14 0 -24 -10 -28 -8 -3 -15 -11 -15 -19 0 -7 -11 -23 -25 -35 -14 -12 -25
-17 -25 -12 0 19 -2 25 -11 36 -10 13 -2 44 12 44 5 0 9 9 9 20 0 13 -5 18
-15 14 -11 -4 -15 1 -15 17 -1 19 -3 21 -9 9 -5 -8 -8 -37 -7 -63 1 -30 -3
-52 -11 -59 -7 -6 -13 -7 -14 -2 0 5 -4 1 -8 -9 -4 -10 -11 -18 -15 -17 -5 1
-12 -4 -17 -11 -4 -7 -24 -14 -44 -14 -31 -1 -35 1 -30 19 3 12 2 15 -1 8 -3
-6 -10 -9 -16 -6 -6 4 -8 -1 -3 -15 4 -12 2 -21 -4 -21 -6 0 -11 6 -12 13 0 7
-3 6 -6 -3 -4 -8 -13 -20 -22 -27 -14 -10 -14 -12 3 -19 12 -5 21 -2 28 9 11
21 38 22 38 2 0 -8 -6 -12 -13 -9 -8 3 -18 -6 -25 -21 -14 -29 -29 -32 -49 -7
-13 15 -13 15 -4 -5 6 -12 15 -23 20 -25 5 -1 2 -10 -7 -18 -14 -13 -15 -12
-10 2 9 22 -11 40 -26 25 -7 -7 -15 -20 -19 -30 -6 -15 -3 -17 13 -12 11 4 20
2 20 -4 0 -6 -4 -11 -10 -11 -5 0 -10 -7 -10 -15 0 -8 -4 -15 -10 -15 -5 0
-10 5 -10 12 0 9 -3 9 -12 0 -12 -12 -14 -19 -24 -69 -6 -31 14 -77 34 -79 33
-3 35 -4 23 -18 -17 -21 -58 -8 -66 21 -6 24 -7 25 -20 7 -7 -10 -11 -22 -9
-26 11 -17 -26 -7 -36 10 -11 16 -11 16 -6 0 3 -10 2 -18 -2 -18 -8 0 -42 -53
-42 -64 0 -3 5 -6 10 -6 6 0 10 9 10 19 0 11 5 23 10 26 13 8 13 -11 -1 -36
-6 -11 -16 -18 -24 -16 -12 5 -41 -41 -31 -50 12 -13 61 25 70 55 7 18 15 30
19 26 4 -5 10 2 14 14 6 26 10 27 29 8 8 -8 14 -30 14 -49 0 -19 7 -40 15 -47
11 -9 12 -17 4 -31 -5 -11 -15 -17 -21 -13 -14 9 -29 -17 -22 -41 5 -19 4 -19
-7 -1 -8 13 -8 24 0 43 9 19 8 27 -4 40 -9 8 -17 14 -18 12 -13 -19 -23 -58
-21 -77 4 -20 2 -21 -16 -12 -11 6 -20 17 -20 25 0 10 -9 14 -25 13 -17 -2
-25 -8 -25 -20 0 -10 -5 -18 -11 -18 -6 0 -9 7 -5 15 3 8 1 15 -4 15 -11 0
-12 -15 -4 -47 4 -13 11 -20 19 -17 10 4 12 -1 8 -17 -4 -15 -3 -20 5 -15 8 5
12 -1 12 -14 0 -27 29 -130 37 -130 3 0 3 12 -1 28 -3 15 -3 21 0 15 9 -21 27
-15 21 7 -3 11 -1 18 3 15 5 -3 9 3 9 12 1 39 5 52 13 47 15 -10 8 -34 -40
-142 -27 -59 -53 -117 -58 -129 -8 -20 -10 -21 -29 -6 -11 9 -14 13 -5 11 18
-5 42 36 33 58 -7 19 -23 14 -37 -12 -6 -10 -13 -21 -16 -24 -3 -3 -6 -23 -6
-44 -1 -36 -1 -38 10 -17 11 19 14 20 24 8 10 -11 9 -22 -3 -48 -12 -29 -20
-32 -16 -6 0 4 -3 7 -9 7 -5 0 -10 -9 -10 -21 0 -11 -7 -27 -15 -36 -8 -8 -13
-19 -10 -24 4 -5 -2 -23 -12 -40 -16 -28 -17 -32 -2 -42 13 -10 14 -18 5 -45
-6 -18 -15 -30 -19 -26 -11 11 -8 36 3 29 6 -3 10 3 10 14 0 22 -20 30 -21 9
0 -7 -5 -3 -11 10 -9 19 -8 26 10 43 13 11 22 32 22 48 0 32 -7 42 -25 34 -10
-3 -11 -11 -4 -30 10 -27 -5 -58 -22 -47 -18 11 -9 66 14 85 l22 19 -22 6
c-13 3 -23 13 -23 20 0 8 -3 14 -7 14 -9 0 -33 -48 -33 -64 0 -6 -9 -22 -20
-36 -17 -21 -19 -22 -14 -5 5 19 5 19 -6 2 -6 -10 -9 -25 -6 -33 3 -8 1 -14
-4 -14 -6 0 -10 -9 -10 -20 0 -28 15 -25 29 7 12 27 13 27 27 8 18 -24 18 -34
-1 -41 -9 -4 -15 -19 -15 -40 0 -27 4 -34 20 -34 11 0 20 -4 20 -8 0 -4 -9
-14 -20 -22 -11 -8 -20 -20 -20 -27 0 -8 -13 -13 -33 -13 -25 0 -37 6 -44 23
-8 17 -10 5 -9 -54 1 -57 4 -75 14 -72 7 3 12 23 12 49 0 32 4 44 15 44 11 0
13 -12 9 -62 -3 -35 -10 -79 -16 -99 -7 -24 -7 -46 -1 -65 9 -27 11 -24 22 41
7 39 20 85 28 103 8 19 12 45 9 58 -5 17 -2 24 8 24 9 0 13 -6 10 -13 -3 -8 0
-26 5 -40 10 -26 -2 -40 -12 -14 -3 7 -6 5 -6 -5 -1 -10 1 -18 3 -18 2 0 12
-3 22 -7 15 -5 16 -1 12 38 -3 24 -3 36 -1 27 3 -10 8 -18 13 -18 11 0 22 64
15 92 -3 13 -2 35 4 48 6 16 10 19 10 8 1 -9 5 -18 10 -20 5 -1 -3 -52 -20
-113 -90 -340 -120 -557 -126 -915 -6 -377 13 -554 100 -945 37 -168 52 -269
38 -261 -4 3 -6 -6 -3 -20 4 -22 6 -23 17 -7 9 12 10 25 3 45 -5 15 -8 33 -6
40 2 6 12 -17 22 -53 9 -35 21 -73 26 -84 4 -11 13 -34 18 -52 9 -26 8 -31 -4
-26 -21 8 -17 -16 11 -72 16 -31 24 -59 20 -72 -3 -13 -1 -23 4 -23 14 0 19
23 9 43 -5 10 -8 26 -6 35 2 9 15 -12 30 -49 15 -36 45 -104 67 -151 23 -47
41 -89 41 -92 0 -4 11 -24 25 -47 14 -22 23 -45 19 -52 -4 -7 -4 -9 1 -5 4 4
36 -41 70 -100 68 -118 130 -216 169 -265 99 -127 136 -180 131 -185 -3 -4
-11 0 -16 8 -9 13 -10 13 -6 0 2 -8 12 -14 21 -14 9 1 44 -31 80 -75 34 -42
115 -129 180 -195 110 -112 131 -137 104 -120 -7 4 -8 3 -4 -5 4 -6 12 -8 18
-5 13 8 79 -56 71 -69 -3 -6 -1 -7 5 -3 15 9 164 -116 153 -127 -13 -13 -39 3
-45 29 -5 20 -26 35 -26 18 0 -33 53 -72 74 -54 11 8 32 -3 90 -46 41 -31 73
-61 69 -67 -4 -6 -1 -7 6 -3 7 5 20 1 29 -7 9 -8 32 -22 50 -31 19 -10 30 -21
26 -28 -4 -7 -3 -8 5 -4 6 4 34 -8 64 -27 29 -19 77 -48 107 -65 30 -16 82
-45 115 -63 33 -19 84 -45 113 -58 37 -18 49 -27 40 -34 -9 -6 -7 -7 6 -3 25
9 180 -55 163 -67 -7 -5 -4 -6 10 -2 12 3 30 1 40 -5 10 -5 88 -33 173 -61 85
-28 161 -59 168 -68 7 -9 10 -10 6 -2 -6 11 1 12 32 7 21 -4 59 -14 84 -21
122 -37 479 -90 687 -102 l111 -6 7 -78 c10 -117 8 -120 -78 -114 -40 3 -112
8 -162 10 -129 8 -249 25 -256 37 -4 6 -14 8 -22 5 -19 -7 -144 10 -172 24
-11 5 -38 11 -60 13 -80 8 -106 17 -100 36 6 19 -29 34 -75 32 -23 -2 -23 -1
-5 7 52 23 68 31 50 26 -10 -3 -40 -8 -65 -11 -33 -4 -41 -3 -30 5 12 8 7 11
-22 11 -20 0 -39 -4 -43 -9 -7 -13 27 -31 59 -31 14 0 27 -4 30 -9 14 -23
-323 83 -348 110 -8 9 -5 10 14 5 14 -4 30 -8 37 -8 7 -1 10 -5 7 -10 -3 -4 5
-8 18 -8 13 0 32 -7 42 -15 11 -8 29 -15 41 -15 12 0 27 -6 34 -13 11 -10 12
-7 6 13 -5 19 -4 22 4 14 13 -12 61 -7 61 7 0 5 -7 9 -15 9 -9 0 -18 8 -22 18
-11 31 -71 82 -96 82 -25 0 -52 -22 -40 -33 3 -4 26 -7 50 -7 23 0 43 -4 43
-10 0 -5 7 -10 15 -10 24 0 17 -14 -12 -27 -31 -15 -86 -18 -65 -4 16 10 -16
21 -63 21 -21 0 -26 3 -16 9 10 7 4 17 -25 45 -33 30 -45 36 -74 33 -19 -2
-44 -8 -55 -12 -19 -8 -19 -8 -2 12 24 27 22 31 -20 49 -34 14 -85 14 -133 1
-8 -2 -12 -2 -7 0 13 8 8 23 -6 17 -8 -3 -20 2 -27 11 -7 8 -19 15 -26 15 -8
0 -14 4 -14 8 0 4 -16 14 -36 21 -19 7 -38 19 -41 27 -3 8 -9 14 -15 14 -5 0
-6 -4 -3 -10 8 -13 3 -13 -32 1 -25 9 -26 12 -10 20 21 12 22 29 2 29 -8 0
-15 -4 -15 -8 0 -15 -45 -7 -63 11 -10 10 -25 16 -33 13 -8 -3 -21 -3 -30 1
-13 5 -13 7 -2 14 7 5 18 9 23 9 6 0 3 -5 -5 -10 -9 -6 -10 -10 -3 -10 6 0 14
4 18 9 7 13 -65 62 -78 54 -6 -4 -8 0 -4 10 4 12 2 14 -10 10 -12 -5 -14 -3
-8 6 6 10 2 11 -15 6 -15 -5 -20 -4 -16 4 4 6 1 11 -8 11 -33 0 -28 -24 12
-61 28 -27 46 -37 59 -32 14 5 16 3 6 -7 -10 -11 -32 0 -115 56 -168 113 -182
123 -159 121 11 -1 23 -7 26 -15 3 -8 13 -11 27 -8 13 3 17 3 10 0 -10 -5 -10
-9 -1 -20 13 -16 49 -19 49 -4 0 6 -5 10 -11 10 -6 0 -9 6 -6 13 4 10 -4 13
-26 12 -39 -3 -47 8 -40 54 5 30 3 34 -8 24 -7 -7 -18 -13 -23 -13 -6 0 -4 5
4 11 12 8 10 9 -8 4 -17 -5 -29 -1 -43 14 -20 21 -16 53 6 45 16 -7 29 12 14
21 -6 4 -23 -5 -39 -20 -27 -26 -28 -26 -41 -8 -17 23 -46 43 -34 23 5 -8 3
-11 -6 -8 -8 3 -14 12 -13 20 1 7 -8 15 -19 15 -18 2 -18 0 4 -24 13 -14 38
-34 54 -44 17 -11 26 -19 20 -19 -5 0 0 -7 12 -15 12 -8 30 -12 40 -9 13 4 15
3 4 -4 -10 -7 -8 -13 10 -26 13 -9 18 -16 12 -16 -11 0 -135 95 -178 137 -12
11 -26 22 -32 24 -15 6 -125 110 -120 115 2 2 18 -11 37 -29 32 -31 85 -48 77
-24 -2 7 -14 12 -27 12 -17 0 -26 7 -30 25 -3 15 -20 32 -43 44 -27 14 -37 26
-37 43 0 16 -8 27 -26 33 -39 15 -54 13 -47 -7 4 -10 -19 7 -49 37 -42 41 -53
58 -45 68 7 9 5 16 -9 26 -10 8 -16 18 -11 22 4 4 7 2 7 -4 0 -7 7 -12 15 -12
23 0 18 17 -7 24 -31 8 -45 -9 -27 -32 8 -10 -12 9 -43 42 -32 34 -58 66 -58
71 1 6 7 2 14 -7 16 -22 30 -23 22 -2 -3 8 -2 12 3 9 9 -5 27 13 19 20 -2 2
-19 0 -39 -4 -35 -8 -35 -8 -111 88 -42 53 -75 98 -72 100 2 2 12 -5 22 -17
11 -12 23 -18 27 -14 5 4 5 1 1 -6 -5 -9 1 -24 17 -40 13 -15 32 -40 42 -55
23 -35 36 -23 25 23 -6 28 -8 30 -9 10 -1 -20 -3 -22 -11 -10 -16 25 -11 39
15 46 31 8 32 18 3 38 -26 19 -41 10 -15 -9 17 -12 17 -13 0 -19 -10 -3 -24
-9 -32 -12 -10 -5 -12 -2 -8 10 4 9 3 15 -2 12 -12 -8 -22 20 -14 42 6 15 5
16 -12 2 -16 -14 -17 -13 -11 8 7 20 -7 32 -17 15 -2 -5 -2 -2 -1 5 2 6 0 12
-4 12 -12 0 -42 61 -35 72 3 6 1 8 -5 4 -5 -3 -12 -2 -14 3 -1 4 -14 11 -28
15 -14 4 -20 4 -15 -1 6 -4 11 -15 13 -23 5 -19 23 -42 30 -35 3 2 -1 11 -8
20 -7 8 -8 15 -2 15 12 0 24 -29 17 -41 -3 -4 2 -21 12 -36 10 -15 13 -24 6
-20 -12 8 -183 261 -183 272 0 3 -25 49 -55 101 -30 51 -51 94 -46 94 4 0 14
-15 23 -32 15 -32 16 -32 14 -6 0 14 -5 24 -10 21 -4 -3 -6 7 -4 23 3 16 3 23
1 17 -3 -7 -9 -13 -15 -13 -5 0 -7 7 -4 16 4 10 -4 21 -23 32 -18 10 -39 37
-53 67 -29 62 -34 79 -13 43 9 -16 17 -28 20 -28 2 0 2 22 0 50 -2 27 0 63 5
79 8 28 7 29 -14 19 -19 -8 -23 -17 -21 -48 2 -33 0 -37 -11 -25 -18 17 -38
69 -24 60 11 -7 14 47 3 58 -3 4 -11 0 -18 -9 -9 -13 -14 -5 -30 49 -10 36
-22 64 -26 62 -10 -7 -20 40 -13 62 4 13 3 15 -4 4 -7 -10 -13 1 -23 40 -7 30
-12 60 -11 67 2 6 -1 12 -6 12 -9 0 -43 108 -67 210 -14 62 -14 94 0 49 6 -17
9 -19 16 -8 6 10 9 8 9 -10 0 -13 3 -21 7 -18 8 9 -26 135 -40 144 -7 4 -8 0
-3 -13 17 -40 17 -51 1 -58 -10 -3 -14 -2 -10 5 4 5 2 15 -3 22 -11 14 -38
138 -51 242 -6 39 -20 142 -31 230 -26 192 -32 607 -11 765 7 52 19 142 27
200 49 379 185 825 362 1190 91 188 294 518 365 593 17 19 33 38 33 42 2 10
107 145 175 224 88 103 128 143 138 137 5 -3 8 0 7 7 0 6 39 50 88 97 l90 85
13 -45 c7 -25 20 -58 27 -75z m46 -382 c-2 -208 17 -297 158 -753 54 -173 74
-246 96 -342 4 -18 2 -28 -5 -28 -34 0 -144 -68 -192 -119 -98 -103 -132 -198
-131 -371 1 -203 59 -344 199 -486 109 -110 206 -157 362 -172 l65 -7 33 -90
c55 -154 127 -290 211 -397 44 -56 44 -57 44 -138 l0 -81 -55 -54 c-64 -62
-121 -172 -155 -299 -12 -44 -23 -83 -26 -87 -2 -4 -152 -83 -332 -175 -384
-196 -635 -326 -838 -436 l-92 -49 -20 33 c-124 203 -281 673 -336 1008 -44
267 -50 344 -51 615 0 423 46 719 172 1110 142 438 339 802 636 1173 103 128
245 292 254 292 2 0 3 -66 3 -147z m173 92 l47 -54 -21 -83 c-12 -45 -24 -134
-28 -198 l-6 -115 -19 80 c-20 83 -34 271 -28 369 2 31 5 56 6 56 1 0 23 -25
49 -55z m5377 -126 c0 -5 -4 -9 -10 -9 -5 0 -10 7 -10 16 0 8 5 12 10 9 6 -3
10 -10 10 -16z m-150 -29 c8 -5 11 -12 8 -16 -4 -3 -14 1 -23 10 -18 17 -9 21
15 6z m-5920 -80 c0 -5 -4 -10 -10 -10 -5 0 -10 5 -10 10 0 6 5 10 10 10 6 0
10 -4 10 -10z m5990 -10 c0 -5 -4 -10 -10 -10 -5 0 -10 5 -10 10 0 6 5 10 10
10 6 0 10 -4 10 -10z m-6020 -40 c0 -11 -5 -20 -11 -20 -6 0 -8 -8 -5 -17 3
-10 2 -24 -3 -32 -16 -26 -24 10 -11 50 14 42 30 52 30 19z m82 1 c15 -18 15
-21 -3 -37 -10 -9 -19 -12 -19 -6 0 6 5 14 11 17 7 5 4 14 -7 26 -9 10 -13 19
-8 19 5 0 17 -9 26 -19z m3172 -88 c20 -119 46 -225 102 -413 20 -69 45 -155
55 -193 11 -37 25 -85 33 -108 10 -28 11 -39 3 -35 -92 40 -138 56 -169 56
-21 0 -38 5 -38 10 0 6 13 10 29 10 16 0 39 8 51 18 35 29 19 56 -54 92 -149
73 -402 79 -557 12 -84 -37 -96 -64 -54 -127 15 -20 25 -38 23 -39 -2 -2 -21
-13 -43 -26 -22 -14 -61 -43 -86 -67 l-45 -42 -45 22 c-64 32 -215 32 -276 -1
l-43 -22 -35 39 c-20 22 -58 54 -86 71 l-49 32 25 30 c48 57 25 98 -78 136
-168 63 -436 50 -561 -27 -37 -23 -54 -57 -38 -73 5 -5 27 -16 48 -23 24 -8
33 -15 24 -18 -8 -3 -35 -10 -60 -17 -25 -6 -74 -27 -109 -46 l-64 -35 6 148
c6 165 24 249 83 401 20 50 38 92 39 92 1 0 44 -18 96 -41 208 -90 411 -124
704 -116 168 4 218 9 310 31 261 62 527 175 725 310 52 35 100 65 105 65 6 1
19 -47 29 -106z m-3201 46 c6 -22 -30 -89 -47 -89 -5 0 -1 9 9 20 11 12 19 36
19 55 0 39 11 46 19 14z m-32 -12 c-13 -13 -26 -3 -16 12 3 6 11 8 17 5 6 -4
6 -10 -1 -17z m-61 -31 c0 -7 -10 -16 -21 -19 -14 -4 -20 -11 -16 -21 9 -22
-21 -48 -45 -40 -13 4 -18 2 -14 -4 4 -6 -2 -8 -14 -5 -11 3 -20 13 -19 22 0
9 3 11 5 4 8 -18 33 -4 73 38 39 41 51 47 51 25z m40 -13 c0 -5 -5 -15 -10
-23 -7 -12 -9 -10 -7 8 1 19 17 33 17 15z m6100 -7 c0 -3 -4 -8 -10 -11 -5 -3
-10 -1 -10 4 0 6 5 11 10 11 6 0 10 -2 10 -4z m35 -65 c-3 -5 -1 -12 5 -16 5
-3 10 -11 10 -18 0 -6 -6 -2 -14 8 -13 18 -13 35 0 35 3 0 3 -4 -1 -9z m-6175
-22 c0 -20 -41 -79 -51 -73 -5 3 -9 11 -9 17 0 8 3 7 9 -2 7 -11 10 -9 16 8 3
11 4 25 0 31 -3 6 1 7 9 4 9 -3 16 -2 16 4 0 6 -6 13 -12 15 -8 3 -6 6 5 6 9
1 17 -4 17 -10z m-72 -128 c-11 -20 -25 -40 -30 -46 -11 -12 12 44 25 62 5 7
6 20 3 29 -5 14 -4 15 9 4 13 -11 13 -17 -7 -49z m-41 -32 c-16 -22 -27 -15
-26 15 0 21 1 21 10 1 7 -15 8 -9 4 20 l-6 40 15 -28 c13 -24 14 -32 3 -48z
m-19 -82 c-13 -26 -26 -47 -29 -47 -11 0 -18 40 -8 46 5 3 9 -3 9 -13 0 -10
10 1 22 24 29 57 34 48 6 -10z m-171 -39 c-3 -8 -6 -5 -6 6 -1 11 2 17 5 13 3
-3 4 -12 1 -19z m122 -52 c-9 -19 -15 -23 -21 -14 -4 7 -8 18 -8 23 0 6 4 4 9
-4 7 -11 10 -9 16 8 4 13 9 20 11 18 3 -2 -1 -16 -7 -31z m-81 -25 c-12 -4
-28 17 -28 38 0 8 8 3 19 -10 11 -14 15 -26 9 -28z m12 -18 c0 -5 -7 -17 -15
-27 -14 -19 -15 -19 -15 7 0 17 5 27 15 27 8 0 15 -3 15 -7z m6760 -224 c0 -6
-4 -7 -10 -4 -5 3 -10 11 -10 16 0 6 5 7 10 4 6 -3 10 -11 10 -16z m-5426
-151 c35 -50 8 -108 -49 -108 -24 0 -37 7 -49 25 -33 50 -8 105 49 105 24 0
39 -7 49 -22z m2656 2 c45 -45 14 -110 -51 -110 -33 0 -41 5 -54 30 -26 50 2
100 56 100 16 0 38 -9 49 -20z m-2210 -16 c0 -3 -25 -28 -55 -56 -31 -28 -54
-53 -51 -55 6 -6 115 27 156 47 19 9 64 25 100 34 54 15 76 16 124 7 32 -6 72
-18 89 -26 31 -16 53 -11 27 5 -25 16 -1 11 33 -7 28 -14 30 -14 19 0 -11 13
-9 16 19 22 22 5 34 3 40 -6 43 -65 51 -85 60 -162 10 -72 9 -97 -5 -158 -31
-140 -133 -271 -252 -326 -143 -65 -344 -32 -458 75 -98 93 -146 212 -145 354
1 149 26 191 134 225 90 28 165 41 165 27z m1803 -22 c91 -38 112 -87 110
-262 -1 -124 -20 -222 -55 -278 -86 -139 -334 -196 -499 -114 -164 81 -268
262 -257 446 7 96 26 147 73 192 l35 33 46 -25 c45 -24 48 -24 99 -9 67 19 78
19 40 -2 -98 -51 -150 -175 -114 -270 14 -38 67 -92 106 -109 46 -20 90 -17
140 7 51 25 86 68 104 127 26 90 -44 212 -144 251 l-52 20 50 -6 c28 -3 75
-16 105 -29 95 -41 190 -72 195 -64 3 4 -17 28 -44 53 -27 26 -52 50 -55 55
-6 11 80 -1 117 -16z m-3712 -13 c-5 -13 -10 -19 -10 -12 -1 15 10 45 15 40 3
-2 0 -15 -5 -28z m-24 -51 c-3 -8 -6 -5 -6 6 -1 11 2 17 5 13 3 -3 4 -12 1
-19z m3411 -4 c12 -8 22 -26 22 -40 0 -28 -32 -64 -57 -64 -25 0 -63 40 -63
66 0 24 33 54 60 54 9 0 26 -7 38 -16z m-2135 -50 c12 -16 14 -24 5 -22 -7 2
-12 -3 -10 -10 1 -8 -1 -11 -6 -8 -5 3 -24 -11 -43 -31 -31 -33 -32 -34 -6
-18 15 10 30 15 34 11 3 -3 1 -6 -5 -6 -7 0 -12 -5 -12 -10 0 -6 8 -10 18 -8
10 2 16 -2 14 -11 -2 -8 3 -11 13 -8 8 4 15 2 15 -3 0 -5 8 -11 18 -13 9 -3
-7 -5 -36 -6 -46 -1 -58 -5 -81 -30 -29 -31 -55 -100 -46 -123 3 -8 46 -27 95
-43 50 -16 90 -34 90 -39 0 -6 -9 -24 -20 -41 -36 -55 -25 -101 47 -187 38
-47 38 -48 38 -130 -1 -77 -2 -83 -20 -80 -88 15 -216 130 -270 244 -50 106
-72 229 -57 322 19 124 54 187 136 247 47 35 66 36 89 3z m2977 -18 c0 -2 -7
-7 -16 -10 -8 -3 -12 -2 -9 4 6 10 25 14 25 6z m-1443 -65 c51 -24 57 -34 77
-146 9 -49 32 -138 51 -198 63 -194 38 -283 -84 -296 -114 -12 -165 -6 -213
23 -24 16 -56 48 -71 70 -22 36 -24 46 -17 91 5 28 18 76 29 109 11 32 18 63
14 69 -3 5 -1 7 4 4 12 -7 27 40 48 153 12 64 19 79 49 107 41 38 55 40 113
14z m1631 -56 c-3 -3 -9 2 -12 12 -6 14 -5 15 5 6 7 -7 10 -15 7 -18z m-295
-80 c-3 -9 -8 -14 -10 -11 -3 3 -2 9 2 15 9 16 15 13 8 -4z m-289 -89 c-3 -15
-8 -25 -11 -23 -2 3 -1 17 3 31 3 15 8 25 11 23 2 -3 1 -17 -3 -31z m401 -66
c-36 -24 -52 -26 -35 -5 7 8 16 13 20 10 5 -3 11 -1 15 5 3 5 12 10 18 10 7 0
-1 -9 -18 -20z m-2651 -117 c52 -103 102 -153 201 -203 115 -57 225 -72 351
-49 126 23 300 129 349 213 15 25 28 46 30 46 1 0 -6 -30 -16 -67 -24 -86 -24
-147 1 -200 25 -56 72 -100 137 -130 46 -21 66 -24 126 -21 102 5 159 37 217
118 31 44 40 156 17 222 -12 37 -12 45 -1 56 14 12 19 5 15 -20 0 -3 29 -34
65 -67 149 -140 350 -192 545 -142 41 11 94 31 119 45 67 39 73 36 65 -31 -33
-279 -185 -591 -384 -787 -236 -233 -457 -328 -724 -313 -56 3 -131 13 -167
23 -81 21 -267 110 -340 163 -30 22 -86 61 -125 87 -38 27 -85 63 -103 81 -19
18 -37 31 -42 28 -9 -6 -35 24 -92 105 -106 151 -181 337 -242 600 -34 147
-66 353 -52 339 2 -2 25 -45 50 -96z m1183 -258 l38 5 -38 -11 c-29 -9 -49 -8
-83 1 -61 17 -65 30 -4 14 27 -7 67 -11 87 -9z m-1310 -42 c-3 -10 -5 -2 -5
17 0 19 2 27 5 18 2 -10 2 -26 0 -35z m5911 -188 c0 -29 -6 -4 -13 60 -8 60
-11 114 -7 120 8 11 19 -99 20 -180z m-1823 95 c109 -16 194 -40 269 -76 l70
-33 28 20 c15 11 56 32 91 47 56 24 74 26 192 27 l131 0 75 -37 c41 -21 84
-47 95 -59 19 -22 19 -22 -1 -15 -23 8 -97 17 -77 10 26 -11 10 -22 -40 -28
-63 -8 -231 -48 -238 -57 -3 -3 -17 -5 -32 -5 -14 1 -24 -2 -22 -6 3 -4 -11
-8 -30 -8 -19 0 -38 5 -41 10 -3 6 -11 10 -16 10 -17 0 0 -19 57 -61 30 -22
52 -44 49 -50 -4 -5 -3 -9 2 -8 24 4 35 -2 29 -17 -4 -12 -2 -15 9 -11 8 4 17
1 21 -5 4 -7 3 -8 -4 -4 -7 4 -12 2 -12 -3 0 -6 6 -11 14 -11 8 0 18 -9 21
-21 6 -17 9 -18 23 -7 15 11 15 11 4 -3 -11 -15 -6 -26 31 -80 86 -124 148
-280 178 -444 6 -33 13 -71 16 -84 6 -22 4 -24 -26 -18 -17 4 -31 5 -31 3 0
-3 16 -37 35 -77 66 -137 80 -269 40 -374 -16 -40 -16 -51 -5 -85 16 -49 8
-61 -23 -31 -30 28 -45 21 -81 -34 -15 -25 -38 -52 -49 -60 -19 -13 -17 -20 6
-16 5 1 6 -3 2 -9 -4 -6 -1 -18 6 -26 10 -12 10 -17 0 -27 -10 -9 -19 -4 -44
23 -41 47 -87 80 -110 80 -10 0 -34 -12 -53 -26 -28 -22 -37 -24 -49 -14 -26
21 -16 -5 11 -31 23 -21 84 -118 84 -133 0 -21 -31 1 -64 45 -55 74 -166 138
-166 96 0 -8 7 -27 15 -43 20 -42 48 -153 41 -170 -10 -27 -23 -13 -39 44 -9
31 -27 70 -40 87 l-25 29 -36 -19 c-53 -28 -106 -74 -106 -91 0 -8 -5 -14 -11
-14 -5 0 -7 -4 -4 -10 3 -5 3 -16 -2 -22 -4 -7 -8 -20 -10 -28 -3 -25 -85 -89
-143 -111 -105 -41 -270 -35 -363 12 -78 40 -131 107 -161 201 -5 16 -114 94
-120 86 -29 -40 -47 -73 -63 -118 -12 -30 -25 -53 -29 -50 -17 9 -6 85 20 143
14 32 26 60 26 64 0 3 -19 3 -41 0 -46 -6 -98 -49 -140 -117 -27 -45 -39 -50
-39 -18 0 24 37 92 83 153 28 36 28 38 5 17 -14 -13 -27 -20 -29 -15 -5 12
-77 53 -93 53 -15 0 -126 -98 -126 -112 0 -6 7 -5 18 3 15 13 16 12 3 -4 -11
-14 -17 -15 -30 -5 -9 7 -17 13 -19 14 -1 1 2 13 9 27 10 22 7 34 -25 91 -20
36 -43 66 -49 66 -7 0 -21 -9 -30 -21 -17 -20 -17 -22 -1 -47 l17 -27 -28 25
c-31 29 -74 109 -68 128 3 6 8 10 13 7 4 -2 3 17 -2 43 -24 114 -30 230 -15
273 13 37 64 107 105 143 35 31 26 39 -18 15 -27 -15 -39 -28 -35 -37 4 -12 2
-12 -9 -3 -11 9 -17 7 -29 -11 -9 -13 -27 -36 -41 -52 -14 -15 -30 -45 -37
-65 -13 -41 -29 -63 -29 -40 0 61 34 281 55 354 53 187 187 408 311 511 72 61
195 144 212 144 30 0 3 11 -39 16 -23 3 -75 16 -113 30 -81 28 -210 53 -291
55 -30 1 -55 6 -55 10 0 17 107 80 169 99 127 40 299 19 413 -50 l47 -29 58
29 c149 74 394 107 588 80z m-1345 -85 c-27 -29 -29 -22 48 -195 76 -173 81
-194 52 -226 -13 -13 -27 -21 -31 -18 -5 3 -7 -1 -4 -8 5 -15 -60 -124 -72
-120 -4 1 -8 -8 -8 -21 -3 -43 -12 -56 -37 -51 -35 8 -76 14 -55 8 24 -8 21
-21 -5 -30 -22 -7 -22 -7 -3 -15 11 -4 14 -8 8 -8 -7 -1 -13 -8 -13 -16 0 -8
-5 -15 -11 -15 -6 0 -9 7 -5 15 3 8 1 15 -4 15 -6 0 -10 -6 -10 -14 0 -8 -8
-17 -17 -19 -11 -3 -7 -5 10 -6 31 -1 38 -21 6 -21 -11 0 -17 -4 -14 -10 3 -6
-5 -10 -18 -10 -16 0 -31 -10 -42 -27 -20 -30 -28 -90 -14 -99 5 -3 9 -9 9
-15 0 -5 -9 -4 -21 3 -17 11 -22 10 -32 -2 -7 -9 -21 -15 -32 -13 -15 1 -16 1
-2 -3 9 -3 17 -9 17 -14 0 -18 -35 -2 -38 18 -2 12 -8 22 -14 22 -5 0 -7 7 -4
16 3 8 2 13 -2 10 -5 -3 -25 17 -46 44 -21 27 -53 59 -71 70 -33 21 -34 21
-37 107 l-3 87 53 71 c64 87 155 261 198 380 31 88 33 90 65 93 48 4 192 31
197 37 3 3 10 5 15 5 6 0 0 -11 -13 -25z m2662 -29 c7 4 8 2 4 -5 -10 -15 -26
-4 -25 17 1 15 2 15 6 -1 2 -9 9 -14 15 -11z m505 -188 c-2 -13 -4 -3 -4 22 0
25 2 35 4 23 2 -13 2 -33 0 -45z m-682 -98 c3 -5 1 -10 -4 -10 -6 0 -11 5 -11
10 0 6 2 10 4 10 3 0 8 -4 11 -10z m-95 -50 c0 -5 -4 -10 -10 -10 -5 0 -10 5
-10 10 0 6 5 10 10 10 6 0 10 -4 10 -10z m-40 -21 c0 -6 -4 -7 -10 -4 -5 3
-10 11 -10 16 0 6 5 7 10 4 6 -3 10 -11 10 -16z m11 -45 c-9 -28 -9 -29 -10
-3 -1 14 2 29 6 32 11 12 13 2 4 -29z m75 11 c-14 -14 -16 -14 -16 -2 0 9 6
17 13 20 19 7 21 -1 3 -18z m-4633 -127 c5 1 6 -2 3 -7 -4 -5 0 -12 6 -14 7
-3 8 -6 2 -6 -12 -1 -94 83 -94 96 0 4 17 -10 38 -32 20 -22 41 -39 45 -37z
m47 -63 c13 -14 21 -25 18 -25 -2 0 -15 11 -28 25 -13 14 -21 25 -18 25 2 0
15 -11 28 -25z m2090 -54 c0 -5 -7 -22 -15 -37 -8 -16 -15 -38 -15 -49 -1 -11
-8 -33 -16 -50 -8 -16 -12 -21 -8 -10 3 11 10 45 16 75 5 30 12 61 14 68 4 14
24 17 24 3z m-1979 -38 c13 -16 12 -17 -3 -4 -10 7 -18 15 -18 17 0 8 8 3 21
-13z m1919 -68 c0 -8 -4 -15 -10 -15 -5 0 -7 7 -4 15 4 8 8 15 10 15 2 0 4 -7
4 -15z m-52 -17 c-25 -8 -33 -24 -29 -50 1 -9 -13 -11 -21 -2 -3 3 1 18 9 35
11 22 21 29 41 28 l27 -1 -27 -10z m-1975 -114 c135 -161 268 -270 414 -336
95 -43 143 -56 254 -69 114 -13 273 0 371 31 45 14 57 15 47 5 -18 -17 -380
-215 -394 -215 -23 0 -358 187 -477 266 -71 47 -167 122 -214 167 -93 89 -103
111 -104 217 0 63 -10 69 103 -66z m1977 66 c0 -5 -2 -10 -4 -10 -3 0 -8 5
-11 10 -3 6 -1 10 4 10 6 0 11 -4 11 -10z m-40 -40 c0 -5 -5 -10 -11 -10 -5 0
-7 5 -4 10 3 6 8 10 11 10 2 0 4 -4 4 -10z m-53 -58 c-10 -10 -15 -22 -12 -25
3 -4 0 -3 -5 1 -14 12 -1 42 18 42 13 0 13 -2 -1 -18z m-2107 -38 c0 -55 130
-194 286 -306 100 -71 279 -181 352 -216 32 -15 59 -28 61 -29 1 -1 -24 -47
-58 -102 -33 -55 -116 -209 -183 -343 l-121 -242 -35 40 c-131 150 -323 469
-442 733 -50 111 -56 141 -26 141 9 0 18 12 22 28 32 140 85 290 117 330 13
16 27 -1 27 -34z m1884 8 c25 -39 62 -146 93 -267 15 -56 22 -70 41 -75 22 -5
20 -9 -53 -165 -84 -179 -170 -335 -253 -464 -84 -129 -194 -273 -202 -264 -4
4 -68 125 -142 268 -74 143 -156 293 -181 334 l-46 75 131 74 c356 200 578
393 578 502 0 29 6 25 34 -18z m226 -62 c0 -5 -4 -10 -10 -10 -5 0 -10 5 -10
10 0 6 5 10 10 10 6 0 10 -4 10 -10z m-2511 -465 l1 -40 -117 -63 c-65 -34
-163 -86 -218 -115 -55 -30 -194 -103 -310 -164 -115 -61 -239 -127 -273 -147
-35 -20 -67 -36 -70 -36 -13 1 -73 113 -65 120 4 4 157 84 338 178 182 94 413
213 515 266 l185 95 6 -27 c4 -15 7 -45 8 -67z m-1398 -20 c5 4 9 -1 9 -9 0
-9 -3 -16 -8 -16 -12 0 -32 37 -24 45 4 4 8 0 10 -9 2 -9 8 -14 13 -11z m-124
-187 c-3 -8 -6 -5 -6 6 -1 11 2 17 5 13 3 -3 4 -12 1 -19z m7027 -3 c3 -8 1
-15 -4 -15 -6 0 -10 7 -10 15 0 8 2 15 4 15 2 0 6 -7 10 -15z m-2520 -128 c4
-17 17 -43 29 -57 24 -25 30 -34 91 -126 41 -62 56 -73 56 -42 0 16 -3 19 -9
10 -7 -11 -9 -11 -14 1 -10 27 46 13 98 -23 28 -19 52 -37 55 -40 15 -17 176
-91 245 -114 135 -44 214 -57 380 -63 120 -4 182 -1 250 10 195 34 364 99 507
193 37 24 70 44 74 44 3 0 3 -33 -1 -74 -8 -85 3 -196 16 -175 13 20 11 -226
-2 -295 -5 -31 -20 -78 -31 -104 l-22 -47 -6 61 c-4 33 -17 83 -30 109 l-23
48 -19 -78 c-31 -130 -108 -264 -197 -342 -31 -27 -36 -18 -22 34 6 21 11 72
11 113 l0 75 -23 -40 c-61 -104 -177 -249 -236 -294 l-35 -26 9 25 c4 14 9 77
11 140 2 103 1 113 -12 95 -8 -11 -20 -27 -27 -35 -28 -34 -115 -157 -127
-180 -12 -23 -14 -23 -24 -6 -22 38 -158 216 -164 216 -11 0 -13 -156 -3 -200
5 -22 5 -42 1 -45 -13 -8 -152 145 -205 226 -28 42 -56 84 -63 95 -11 16 -12
6 -8 -61 2 -44 11 -99 19 -123 8 -23 11 -44 7 -47 -14 -9 -130 117 -169 184
-40 66 -81 183 -81 226 0 44 -18 35 -35 -16 -19 -58 -16 -131 9 -180 25 -50
-4 -34 -90 49 -90 86 -153 183 -179 277 -30 105 -31 106 -50 60 -16 -35 -16
-49 -6 -110 12 -76 53 -165 103 -223 18 -20 82 -84 142 -142 276 -261 259
-240 388 -495 64 -127 129 -253 144 -282 16 -28 26 -55 22 -58 -9 -9 -72 30
-120 73 -21 19 -38 32 -38 29 0 -5 27 -118 36 -149 4 -13 -5 -22 -32 -33 -20
-8 -42 -15 -49 -15 -24 0 -124 101 -175 177 -44 65 -50 71 -50 46 0 -29 21
-124 35 -155 15 -36 -20 -17 -75 40 -68 69 -110 150 -136 260 -10 45 -22 82
-25 82 -7 0 -29 -122 -30 -167 -1 -24 -4 -21 -26 27 -36 77 -61 154 -80 235
-16 76 -35 306 -33 422 1 39 -3 74 -9 77 -14 9 -24 -48 -18 -102 4 -33 3 -39
-3 -22 -4 14 -9 43 -10 65 -1 22 -4 32 -7 23 -2 -10 -9 -18 -14 -18 -5 0 -9
-7 -9 -15 0 -8 -4 -15 -10 -15 -5 0 -10 7 -10 15 0 8 -9 15 -20 15 -12 0 -20
7 -21 18 -1 9 -5 1 -10 -18 -4 -19 -6 -43 -3 -52 3 -10 1 -18 -5 -18 -6 0 -11
15 -11 33 0 17 -4 37 -8 44 -8 12 -5 -337 4 -375 l5 -24 25 27 c14 15 27 25
29 23 3 -3 9 -29 15 -59 35 -185 145 -417 302 -633 27 -37 46 -72 41 -76 -11
-10 -259 -78 -298 -82 -30 -3 -30 -2 -68 112 -47 139 -135 379 -148 400 -5 9
-9 -36 -10 -120 l-1 -135 -19 75 c-11 41 -22 112 -26 158 -3 45 -9 82 -12 82
-3 0 -5 21 -3 48 2 35 0 43 -7 32 -9 -13 -11 -13 -11 2 0 19 -20 20 -32 3 -4
-5 -8 4 -9 20 -3 55 -17 -66 -18 -151 -2 -148 39 -318 113 -469 28 -58 40 -92
33 -97 -23 -14 -260 -41 -476 -54 l-114 -6 6 183 c14 461 112 783 345 1139 36
55 104 133 189 218 l133 133 0 99 c0 54 5 134 11 177 13 95 69 270 110 342
l31 53 33 -32 c18 -17 36 -46 39 -63z m2586 31 c0 -25 -3 -29 -10 -18 -13 20
-13 50 0 50 6 0 10 -15 10 -32z m-32 0 c5 -7 12 -24 16 -38 5 -22 4 -22 -7 3
-8 16 -20 33 -28 38 -8 5 -9 9 -3 9 6 0 16 -6 22 -12z m-2433 -98 c3 -6 -1 -7
-9 -4 -18 7 -21 14 -7 14 6 0 13 -4 16 -10z m-4507 -85 c-3 -3 -9 2 -12 12 -6
14 -5 15 5 6 7 -7 10 -15 7 -18z m2495 -180 c-15 -52 -91 -263 -101 -282 -7
-11 -24 1 -80 52 -40 37 -72 74 -72 83 0 10 32 83 71 163 l71 146 62 -61 61
-61 -12 -40z m641 -226 c-51 -52 -81 -74 -85 -66 -3 6 -30 83 -59 169 l-52
157 58 65 59 64 78 -155 79 -156 -78 -78z m3033 229 c-3 -8 -6 -5 -6 6 -1 11
2 17 5 13 3 -3 4 -12 1 -19z m-3607 -235 c-11 -17 -11 -17 -6 0 3 10 7 26 7
35 1 15 2 15 6 0 2 -10 -1 -25 -7 -35z m-19 -50 c-12 -20 -14 -14 -5 12 4 9 9
14 11 11 3 -2 0 -13 -6 -23z m-13 -72 c-2 -34 -7 -47 -16 -44 -7 3 -10 13 -8
22 3 9 8 28 12 44 10 41 14 33 12 -22z m1799 -273 c-3 -7 -5 -2 -5 12 0 14 2
19 5 13 2 -7 2 -19 0 -25z m-3592 -138 c3 -6 -1 -7 -9 -4 -18 7 -21 14 -7 14
6 0 13 -4 16 -10z m16 -19 c5 8 9 10 9 4 0 -5 -4 -16 -9 -24 -8 -12 -12 -12
-25 -2 -9 8 -16 18 -16 23 0 6 7 5 16 -3 13 -10 17 -10 25 2z m23 -57 c5 -14
4 -15 -9 -4 -17 14 -19 20 -6 20 5 0 12 -7 15 -16z m66 -26 c0 -6 -6 -5 -15 2
-8 7 -15 14 -15 16 0 2 7 1 15 -2 8 -4 15 -11 15 -16z m295 -239 c4 -6 13 -8
21 -5 8 3 11 0 8 -8 -4 -11 -10 -11 -30 -2 -13 6 -24 14 -24 19 0 11 18 9 25
-4z m255 -174 c7 -8 8 -15 2 -15 -5 0 -15 7 -22 15 -7 8 -8 15 -2 15 5 0 15
-7 22 -15z m74 -76 c14 -7 27 -18 30 -26 5 -12 -25 4 -63 34 -9 7 10 2 33 -8z
m106 -54 c43 -4 45 -5 28 -16 -13 -7 -27 -4 -55 11 -21 12 -29 18 -18 14 11
-4 31 -8 45 -9z m73 -41 c-4 -10 -10 -11 -24 -3 -24 13 -24 14 5 15 17 1 23
-2 19 -12z m77 -36 c0 -5 5 -6 12 -2 7 5 8 3 3 -6 -6 -9 -1 -10 16 -5 19 5 21
4 9 -4 -13 -9 -13 -11 1 -11 9 0 22 -7 29 -15 11 -13 10 -14 -5 -9 -9 4 -40
19 -67 34 -43 23 -46 28 -24 28 14 0 26 -5 26 -10z m216 -39 c3 -6 0 -15 -7
-20 -12 -7 -12 -9 0 -9 8 0 12 -2 9 -5 -3 -3 -17 -1 -32 4 -21 9 -26 8 -26 -4
0 -8 9 -15 20 -15 11 0 20 -4 20 -10 0 -5 10 -9 23 -7 12 1 21 -3 20 -9 -1 -7
3 -11 10 -11 32 1 48 -4 42 -13 -4 -7 -11 -7 -18 -2 -7 5 -19 9 -27 9 -8 1
-44 15 -80 32 -36 17 -55 29 -42 26 19 -5 22 -2 22 19 0 22 5 26 29 26 17 0
33 -5 37 -11z m114 -59 c0 -11 -6 -20 -14 -20 -9 0 -12 7 -9 20 3 11 9 20 14
20 5 0 9 -9 9 -20z m-40 0 c-20 -13 -43 -13 -35 0 3 6 16 10 28 10 18 0 19 -2
7 -10z m44 -48 c2 -4 -5 -9 -17 -9 -17 -2 -19 0 -7 7 18 12 18 12 24 2z m441
-143 c11 -16 2 -17 -30 -3 l-30 13 27 1 c15 0 30 -5 33 -11z"/>
<path d="M5663 8913 c9 -2 25 -2 35 0 9 3 1 5 -18 5 -19 0 -27 -2 -17 -5z"/>
<path d="M4608 8903 c6 -2 18 -2 25 0 6 3 1 5 -13 5 -14 0 -19 -2 -12 -5z"/>
<path d="M5755 8896 c11 -8 25 -11 33 -8 11 4 11 6 0 13 -7 5 -22 9 -32 9 -19
0 -19 0 -1 -14z"/>
<path d="M5658 8893 c7 -3 16 -2 19 1 4 3 -2 6 -13 5 -11 0 -14 -3 -6 -6z"/>
<path d="M5835 8890 c-3 -6 1 -7 9 -4 18 7 21 14 7 14 -6 0 -13 -4 -16 -10z"/>
<path d="M5606 8855 c-4 -11 2 -15 27 -15 30 1 31 1 13 15 -25 19 -32 19 -40
0z"/>
<path d="M5766 8842 c-16 -16 0 -22 57 -22 64 0 122 19 62 20 -16 1 -49 3 -72
5 -23 2 -44 1 -47 -3z"/>
<path d="M5991 8833 c13 -15 64 -18 54 -4 -3 5 5 12 17 14 13 3 -1 4 -29 4
-43 0 -51 -3 -42 -14z"/>
<path d="M6108 8813 c7 -3 16 -2 19 1 4 3 -2 6 -13 5 -11 0 -14 -3 -6 -6z"/>
<path d="M4590 8800 c-22 -7 -21 -8 13 -9 20 -1 37 4 37 9 0 11 -14 11 -50 0z"/>
<path d="M5180 8800 c-23 -7 -22 -8 10 -8 19 0 49 4 65 8 29 7 28 8 -10 8 -22
0 -51 -4 -65 -8z"/>
<path d="M5928 8803 c7 -3 16 -2 19 1 4 3 -2 6 -13 5 -11 0 -14 -3 -6 -6z"/>
<path d="M6173 8803 c9 -2 25 -2 35 0 9 3 1 5 -18 5 -19 0 -27 -2 -17 -5z"/>
<path d="M5328 8783 c12 -2 30 -2 40 0 9 3 -1 5 -23 4 -22 0 -30 -2 -17 -4z"/>
<path d="M6328 8768 c5 -5 16 -8 23 -6 8 3 3 7 -10 11 -17 4 -21 3 -13 -5z"/>
<path d="M6212 8761 c-23 -14 9 -30 38 -19 20 7 22 11 10 18 -18 12 -31 12
-48 1z"/>
<path d="M6358 8733 c6 -2 10 -8 7 -13 -3 -5 3 -11 14 -15 11 -3 22 -12 25
-20 3 -9 19 -15 38 -15 30 0 31 1 12 15 -10 8 -27 15 -36 15 -10 0 -22 9 -28
20 -6 11 -18 20 -28 19 -10 0 -12 -3 -4 -6z"/>
<path d="M6000 8710 l-25 -8 25 -1 c14 0 32 4 40 9 13 9 13 10 0 9 -8 -1 -26
-5 -40 -9z"/>
<path d="M6540 8685 c0 -8 29 -12 39 -5 9 5 4 8 -13 8 -14 0 -26 -2 -26 -3z"/>
<path d="M6565 8651 c-7 -12 1 -17 43 -26 38 -8 43 7 7 23 -31 14 -42 15 -50
3z m32 -7 c-3 -3 -12 -4 -19 -1 -8 3 -5 6 6 6 11 1 17 -2 13 -5z"/>
<path d="M6396 8628 c5 -8 -2 -9 -24 -5 -17 4 -34 2 -37 -3 -4 -7 -13 -6 -25
0 -10 5 -27 10 -37 9 -18 0 16 -15 88 -38 45 -14 66 -14 75 0 5 8 -1 10 -20 7
-14 -3 -29 -1 -32 3 -6 10 5 12 63 10 34 -1 41 1 37 14 -4 10 -20 15 -51 15
-31 0 -42 -3 -37 -12z"/>
<path d="M6720 8626 c0 -2 18 -15 40 -30 32 -21 44 -24 58 -16 12 8 12 10 2 7
-8 -2 -32 7 -52 20 -36 22 -48 27 -48 19z"/>
<path d="M6533 8603 c-20 -7 -15 -23 7 -23 11 0 20 4 20 9 0 13 -12 19 -27 14z"/>
<path d="M6696 8597 c-6 -12 -3 -24 9 -37 17 -19 41 -18 29 1 -3 5 -9 7 -14 4
-5 -3 -10 7 -12 22 -4 24 -6 25 -12 10z"/>
<path d="M6720 8589 c0 -12 25 -22 41 -17 6 2 0 9 -15 16 -16 7 -26 8 -26 1z"/>
<path d="M6791 8471 c-7 -5 -9 -11 -4 -14 5 -3 15 -2 22 2 7 5 9 11 4 14 -5 3
-15 2 -22 -2z"/>
<path d="M7055 8460 c3 -5 8 -10 11 -10 2 0 4 5 4 10 0 6 -5 10 -11 10 -5 0
-7 -4 -4 -10z"/>
<path d="M7072 8415 c-21 -9 -31 -19 -26 -26 5 -9 10 -8 18 3 14 19 62 36 51
18 -5 -9 -4 -11 4 -6 11 7 6 26 -7 26 -4 -1 -22 -7 -40 -15z"/>
<path d="M6950 8369 c0 -6 -9 -8 -22 -4 -20 6 -19 3 7 -19 17 -14 42 -28 58
-31 15 -4 27 -11 27 -16 0 -5 16 -15 35 -23 19 -8 35 -20 35 -25 0 -6 5 -11
11 -11 5 0 27 -11 47 -25 20 -14 40 -25 44 -25 5 0 8 16 8 35 0 19 -5 35 -11
35 -6 0 -8 -7 -5 -16 5 -12 2 -15 -9 -10 -11 4 -14 2 -9 -6 5 -8 2 -9 -10 -5
-10 4 -20 7 -22 7 -2 0 -4 8 -4 18 0 16 -71 62 -97 62 -7 0 -20 12 -30 28 -25
39 -53 56 -53 31z"/>
<path d="M7120 8358 c0 -4 7 -8 15 -8 8 0 15 4 15 8 0 5 -7 9 -15 9 -8 0 -15
-4 -15 -9z"/>
<path d="M7195 8330 c-4 -6 7 -10 27 -9 27 0 30 2 13 9 -27 12 -33 12 -40 0z"/>
<path d="M7105 8300 c-3 -5 -1 -10 4 -10 6 0 11 5 11 10 0 6 -2 10 -4 10 -3 0
-8 -4 -11 -10z"/>
<path d="M7285 8300 c-3 -5 -1 -10 4 -10 6 0 11 5 11 10 0 6 -2 10 -4 10 -3 0
-8 -4 -11 -10z"/>
<path d="M7360 8260 c-8 -5 -12 -12 -9 -15 4 -3 12 1 19 10 14 17 11 19 -10 5z"/>
<path d="M7454 8195 c8 -8 18 -15 22 -15 3 0 1 7 -6 15 -7 8 -17 15 -22 15 -5
0 -3 -7 6 -15z"/>
<path d="M7440 8150 c0 -6 7 -10 15 -10 8 0 15 2 15 4 0 2 -7 6 -15 10 -8 3
-15 1 -15 -4z"/>
<path d="M7620 8010 c-8 -5 -10 -10 -5 -10 6 0 17 5 25 10 8 5 11 10 5 10 -5
0 -17 -5 -25 -10z"/>
<path d="M7660 7990 c0 -5 5 -10 10 -10 6 0 10 5 10 10 0 6 -4 10 -10 10 -5 0
-10 -4 -10 -10z"/>
<path d="M7499 7973 c-12 -14 -12 -16 0 -8 10 6 13 4 9 -6 -4 -10 1 -15 13
-16 23 -2 25 15 4 23 -8 4 -12 10 -9 15 9 15 -3 10 -17 -8z"/>
<path d="M7704 7943 c10 -13 23 -20 29 -16 7 4 6 8 -3 11 -8 3 -22 10 -30 16
-8 6 -7 1 4 -11z"/>
<path d="M7610 7935 c0 -9 5 -15 11 -13 6 2 11 8 11 13 0 5 -5 11 -11 13 -6 2
-11 -4 -11 -13z"/>
<path d="M7758 7944 c-3 -5 -2 -18 3 -29 4 -11 8 -14 8 -7 1 6 6 12 12 12 5 0
8 -4 5 -9 -6 -10 31 -47 40 -39 3 3 -10 23 -29 43 -19 21 -37 33 -39 29z"/>
<path d="M7581 7906 c-8 -10 -8 -16 2 -24 10 -9 13 -6 13 13 0 29 0 29 -15 11z"/>
<path d="M7657 7896 c-3 -8 -2 -18 3 -21 13 -8 24 15 12 27 -6 6 -11 4 -15 -6z"/>
<path d="M7760 7876 c0 -2 7 -7 16 -10 8 -3 12 -2 9 4 -6 10 -25 14 -25 6z"/>
<path d="M7721 7851 c-8 -14 -7 -22 5 -32 14 -11 18 -10 30 6 10 13 11 22 3
32 -16 18 -26 16 -38 -6z m29 -21 c0 -5 -4 -10 -10 -10 -5 0 -10 5 -10 10 0 6
5 10 10 10 6 0 10 -4 10 -10z"/>
<path d="M7836 7863 c-12 -13 -5 -23 16 -23 12 0 18 -3 15 -7 -8 -7 11 -33 24
-33 11 0 -23 59 -38 64 -6 3 -14 2 -17 -1z"/>
<path d="M7636 7835 c9 -14 21 -24 27 -22 11 3 57 -35 57 -49 0 -5 23 -29 50
-53 27 -24 46 -49 43 -55 -4 -6 1 -5 10 3 21 17 22 32 2 25 -20 -8 -19 5 3 30
17 21 17 21 -5 2 -19 -15 -24 -16 -36 -5 -26 27 -26 46 -1 59 25 14 30 25 15
34 -5 3 -14 -1 -21 -9 -7 -8 -16 -12 -21 -9 -5 3 -9 -2 -9 -10 0 -9 -4 -16
-10 -16 -5 0 -10 4 -10 8 0 5 -13 24 -30 42 -16 18 -30 28 -30 22 0 -7 -5 -12
-11 -12 -5 0 -7 5 -4 10 3 6 1 10 -5 10 -6 0 -8 5 -5 10 3 6 -1 10 -10 10 -14
0 -14 -3 1 -25z"/>
<path d="M7840 7795 c0 -2 10 -10 23 -16 20 -11 21 -11 8 4 -13 16 -31 23 -31
12z"/>
<path d="M7915 7779 c-4 -5 -4 -13 -1 -16 3 -4 6 0 6 8 0 11 2 11 10 -1 6 -9
10 -10 10 -3 0 17 -17 25 -25 12z"/>
<path d="M7830 7760 c-9 -6 -10 -10 -3 -10 6 0 15 5 18 10 8 12 4 12 -15 0z"/>
<path d="M7931 7724 c0 -11 3 -14 6 -6 3 7 2 16 -1 19 -3 4 -6 -2 -5 -13z"/>
<path d="M7996 7686 c3 -8 12 -12 20 -9 8 3 14 -1 14 -8 0 -7 3 -9 6 -6 9 9
-15 37 -32 37 -8 0 -11 -6 -8 -14z"/>
<path d="M7830 7650 c0 -5 5 -10 10 -10 6 0 10 5 10 10 0 6 -4 10 -10 10 -5 0
-10 -4 -10 -10z"/>
<path d="M7860 7626 c0 -8 5 -16 11 -18 5 -2 11 -10 12 -18 7 -47 37 -47 37 1
0 22 -5 29 -20 29 -11 0 -20 5 -20 10 0 6 -4 10 -10 10 -5 0 -10 -6 -10 -14z"/>
<path d="M7984 7586 c-4 -9 -4 -20 0 -23 3 -4 12 -1 18 5 9 9 9 15 0 24 -9 9
-13 7 -18 -6z"/>
<path d="M8020 7576 c0 -9 5 -16 10 -16 6 0 10 4 10 9 0 6 -4 13 -10 16 -5 3
-10 -1 -10 -9z"/>
<path d="M8116 7543 c-6 -14 -5 -15 5 -6 7 7 10 15 7 18 -3 3 -9 -2 -12 -12z"/>
<path d="M7935 7539 c-4 -6 6 -24 25 -43 31 -30 32 -30 25 -6 -4 16 -3 20 3
12 5 -7 16 -10 25 -6 26 9 11 22 -22 18 -21 -2 -28 1 -27 13 1 19 -19 28 -29
12z"/>
<path d="M8062 7528 c3 -7 12 -14 21 -16 12 -2 15 1 11 12 -7 19 -38 22 -32 4z"/>
<path d="M8190 7382 c1 -17 19 -34 29 -28 17 11 13 23 -9 29 -11 3 -20 2 -20
-1z"/>
<path d="M8145 7370 c-3 -5 -1 -10 4 -10 6 0 11 5 11 10 0 6 -2 10 -4 10 -3 0
-8 -4 -11 -10z"/>
<path d="M8240 7289 c0 -5 5 -7 10 -4 6 3 10 8 10 11 0 2 -4 4 -10 4 -5 0 -10
-5 -10 -11z"/>
<path d="M8310 7292 c0 -5 7 -9 15 -9 8 0 12 4 9 9 -3 4 -9 8 -15 8 -5 0 -9
-4 -9 -8z"/>
<path d="M8340 7262 c0 -5 7 -17 15 -28 15 -19 20 -8 9 20 -6 17 -24 22 -24 8z"/>
<path d="M8215 7230 c-3 -5 -1 -10 4 -10 6 0 11 5 11 10 0 6 -2 10 -4 10 -3 0
-8 -4 -11 -10z"/>
<path d="M8320 7210 c0 -17 -5 -39 -12 -50 -7 -10 -9 -22 -5 -26 12 -12 38 29
34 53 -3 16 0 20 12 15 13 -4 12 -1 -3 16 -25 28 -26 28 -26 -8z"/>
<path d="M8375 7210 c-3 -5 -1 -10 4 -10 6 0 11 5 11 10 0 6 -2 10 -4 10 -3 0
-8 -4 -11 -10z"/>
<path d="M8396 7145 c-4 -14 -2 -33 3 -43 10 -16 10 -16 11 0 0 9 8 22 18 28
16 11 16 11 -2 6 -15 -5 -17 -2 -13 14 3 11 2 20 -3 20 -4 0 -11 -11 -14 -25z"/>
<path d="M8445 7080 c3 -5 11 -10 16 -10 6 0 7 5 4 10 -3 6 -11 10 -16 10 -6
0 -7 -4 -4 -10z"/>
<path d="M8415 7070 c-3 -5 -1 -10 4 -10 6 0 11 5 11 10 0 6 -2 10 -4 10 -3 0
-8 -4 -11 -10z"/>
<path d="M8307 7046 c-5 -15 -6 -31 -3 -34 8 -8 18 25 14 45 -3 13 -6 10 -11
-11z"/>
<path d="M8476 7051 c-3 -5 1 -11 9 -14 9 -4 12 -1 8 9 -6 16 -10 17 -17 5z"/>
<path d="M8500 7009 c0 -5 -4 -8 -9 -5 -15 10 1 -38 18 -50 21 -16 44 5 24 24
-7 7 -13 20 -13 28 0 8 -4 14 -10 14 -5 0 -10 -5 -10 -11z m24 -35 c5 -14 4
-15 -9 -4 -17 14 -19 20 -6 20 5 0 12 -7 15 -16z"/>
<path d="M8331 6974 c0 -11 3 -14 6 -6 3 7 2 16 -1 19 -3 4 -6 -2 -5 -13z"/>
<path d="M8355 6963 c3 -38 26 -84 38 -76 6 3 7 1 4 -5 -4 -5 -4 -18 0 -28 6
-16 7 -16 19 1 10 13 10 23 2 41 -12 26 -28 32 -28 12 -1 -15 -29 32 -29 47 0
6 6 1 14 -9 13 -17 15 -17 15 -4 0 14 -25 48 -34 48 -2 0 -2 -12 -1 -27z"/>
<path d="M8461 6953 c0 -12 3 -24 9 -28 9 -6 2 -36 -11 -45 -4 -3 -1 -10 6
-17 10 -9 15 -6 25 13 11 20 11 27 -2 41 -9 10 -18 27 -21 38 -4 19 -5 18 -6
-2z"/>
<path d="M8544 6895 c-3 -8 4 -29 15 -47 l22 -33 -6 40 c-5 30 -4 36 4 25 6
-8 11 -10 11 -5 0 28 -37 44 -46 20z"/>
<path d="M8426 6823 c4 -16 12 -37 17 -48 10 -18 11 -19 15 -2 3 12 9 16 23
12 13 -4 19 -2 19 8 0 10 -8 13 -25 10 -19 -4 -25 0 -31 21 -3 14 -10 26 -15
26 -5 0 -6 -12 -3 -27z"/>
<path d="M8455 6831 c-3 -5 -1 -12 5 -16 5 -3 10 1 10 9 0 18 -6 21 -15 7z"/>
<path d="M8590 6795 c0 -8 2 -15 4 -15 2 0 6 7 10 15 3 8 1 15 -4 15 -6 0 -10
-7 -10 -15z"/>
<path d="M8471 6754 c0 -11 3 -14 6 -6 3 7 2 16 -1 19 -3 4 -6 -2 -5 -13z"/>
<path d="M8641 6765 c1 -19 18 -51 18 -35 0 8 -4 22 -9 30 -5 8 -9 11 -9 5z"/>
<path d="M8590 6681 c0 -16 -3 -37 -6 -45 -5 -12 -2 -15 10 -10 18 7 23 84 6
84 -5 0 -10 -13 -10 -29z"/>
<path d="M8652 6658 c-6 -18 -9 -34 -6 -37 2 -3 7 5 11 17 6 25 23 30 23 8 0
-8 4 -17 10 -21 5 -3 5 7 -1 25 -15 42 -23 44 -37 8z"/>
<path d="M8721 6574 c0 -11 3 -14 6 -6 3 7 2 16 -1 19 -3 4 -6 -2 -5 -13z"/>
<path d="M8668 6475 c-6 -63 -3 -79 13 -70 11 7 11 82 0 110 -6 14 -10 3 -13
-40z"/>
<path d="M8620 6471 c0 -6 4 -13 10 -16 6 -3 7 1 4 9 -7 18 -14 21 -14 7z"/>
<path d="M8731 6464 c0 -11 3 -14 6 -6 3 7 2 16 -1 19 -3 4 -6 -2 -5 -13z"/>
<path d="M8758 6445 c-6 -47 -6 -46 10 -36 10 6 11 17 4 42 l-9 34 -5 -40z"/>
<path d="M8632 6380 c0 -14 2 -19 5 -12 2 6 2 18 0 25 -3 6 -5 1 -5 -13z"/>
<path d="M8810 6320 c1 -8 7 -26 15 -40 l15 -25 -6 30 c-7 33 -24 58 -24 35z"/>
<path d="M8711 6244 c0 -11 3 -14 6 -6 3 7 2 16 -1 19 -3 4 -6 -2 -5 -13z"/>
<path d="M8791 6215 c1 -80 23 -114 27 -42 1 15 -3 27 -9 27 -6 0 -8 8 -5 18
3 9 1 24 -4 32 -7 11 -10 1 -9 -35z"/>
<path d="M8882 6100 c0 -14 2 -19 5 -12 2 6 2 18 0 25 -3 6 -5 1 -5 -13z"/>
<path d="M8856 6018 c-8 -72 -8 -100 2 -94 8 4 15 146 8 146 -2 0 -6 -24 -10
-52z"/>
<path d="M8900 5990 c0 -5 5 -10 10 -10 6 0 10 -10 10 -22 0 -13 5 -30 10 -38
10 -14 7 11 -7 63 -5 18 -23 24 -23 7z"/>
<path d="M8882 5880 c0 -14 2 -19 5 -12 2 6 2 18 0 25 -3 6 -5 1 -5 -13z"/>
<path d="M8960 5786 c0 -14 4 -27 8 -30 5 -3 6 8 4 25 -5 35 -12 38 -12 5z"/>
<path d="M8982 5700 c0 -14 2 -19 5 -12 2 6 2 18 0 25 -3 6 -5 1 -5 -13z"/>
<path d="M8861 5664 c0 -11 3 -14 6 -6 3 7 2 16 -1 19 -3 4 -6 -2 -5 -13z"/>
<path d="M8961 5634 c0 -11 3 -14 6 -6 3 7 2 16 -1 19 -3 4 -6 -2 -5 -13z"/>
<path d="M8975 5600 c-4 -17 -5 -34 -2 -36 2 -3 7 10 11 27 3 18 4 34 2 36 -2
3 -7 -10 -11 -27z"/>
<path d="M8832 5580 c0 -14 2 -19 5 -12 2 6 2 18 0 25 -3 6 -5 1 -5 -13z"/>
<path d="M8991 5549 c0 -13 4 -33 9 -44 7 -14 8 -8 3 20 -7 46 -13 59 -12 24z"/>
<path d="M8966 5517 c3 -10 9 -15 12 -12 3 3 0 11 -7 18 -10 9 -11 8 -5 -6z"/>
<path d="M8876 5498 c-5 -16 -5 -36 0 -45 7 -16 8 -15 11 5 3 12 3 32 0 45 -3
21 -4 20 -11 -5z"/>
<path d="M8852 5465 c0 -11 4 -31 8 -45 6 -20 8 -21 8 -5 0 11 -4 31 -8 45 -6
20 -8 21 -8 5z"/>
<path d="M8941 5464 c0 -11 3 -14 6 -6 3 7 2 16 -1 19 -3 4 -6 -2 -5 -13z"/>
<path d="M8960 5426 c0 -19 3 -37 8 -40 4 -2 6 13 4 35 -5 48 -12 51 -12 5z"/>
<path d="M8982 5059 c-3 -84 9 -180 22 -176 17 6 19 57 2 76 -9 10 -16 42 -19
86 -3 67 -3 67 -5 14z"/>
<path d="M9005 4789 c-3 -9 -2 -26 4 -40 l9 -24 7 28 c8 31 -10 63 -20 36z"/>
<path d="M8962 4701 c0 -30 -6 -57 -13 -61 -11 -7 -9 -41 7 -118 8 -41 27 -36
35 9 4 19 7 28 8 20 0 -8 3 -12 6 -9 3 3 1 16 -4 29 -8 22 -10 20 -17 -21 l-9
-45 -6 55 c-3 30 -2 73 4 95 7 27 7 51 0 70 -9 27 -10 25 -11 -24z"/>
<path d="M8871 4704 c0 -11 3 -14 6 -6 3 7 2 16 -1 19 -3 4 -6 -2 -5 -13z"/>
<path d="M9010 4701 c0 -25 6 -27 13 -6 4 8 2 17 -3 20 -6 4 -10 -3 -10 -14z"/>
<path d="M8852 4615 c0 -16 2 -22 5 -12 2 9 2 23 0 30 -3 6 -5 -1 -5 -18z"/>
<path d="M9000 4631 c0 -6 5 -13 10 -16 6 -3 10 1 10 9 0 9 -4 16 -10 16 -5 0
-10 -4 -10 -9z"/>
<path d="M8857 4563 c-4 -3 -6 -20 -6 -37 l2 -31 6 35 7 35 13 -40 c16 -48 26
-61 36 -45 9 15 -3 80 -16 80 -6 0 -7 -4 -4 -10 3 -5 1 -10 -4 -10 -6 0 -11 7
-11 15 0 16 -12 20 -23 8z"/>
<path d="M8871 4494 c0 -11 3 -14 6 -6 3 7 2 16 -1 19 -3 4 -6 -2 -5 -13z"/>
<path d="M8974 4456 c-3 -14 -1 -33 5 -43 9 -16 10 -15 11 9 0 14 3 33 6 42 3
9 1 16 -5 16 -6 0 -13 -11 -17 -24z"/>
<path d="M8862 4430 c0 -19 2 -27 5 -17 2 9 2 25 0 35 -3 9 -5 1 -5 -18z"/>
<path d="M8831 4434 c0 -11 3 -14 6 -6 3 7 2 16 -1 19 -3 4 -6 -2 -5 -13z"/>
<path d="M8962 4295 c0 -16 2 -22 5 -12 2 9 2 23 0 30 -3 6 -5 -1 -5 -18z"/>
<path d="M8781 4208 c-1 -9 -4 -25 -7 -35 -5 -15 -4 -15 5 -3 9 12 11 11 12
-10 0 -14 3 -20 5 -13 3 6 1 26 -5 45 -5 18 -10 25 -10 16z"/>
<path d="M8880 4181 c0 -12 6 -21 16 -21 9 0 14 7 12 17 -5 25 -28 28 -28 4z"/>
<path d="M8920 4150 c0 -8 5 -22 10 -30 9 -13 10 -13 10 0 0 8 -5 22 -10 30
-9 13 -10 13 -10 0z"/>
<path d="M8856 4083 c9 -91 14 -92 14 -5 0 43 -4 72 -10 72 -7 0 -8 -24 -4
-67z"/>
<path d="M8760 4073 c0 -21 3 -24 9 -14 5 8 7 20 4 28 -8 21 -13 15 -13 -14z"/>
<path d="M8792 4061 c-1 -22 3 -43 8 -46 6 -4 10 12 10 39 0 56 -16 62 -18 7z"/>
<path d="M8778 3973 c-2 -22 -8 -28 -26 -28 -27 -1 -42 -20 -42 -55 0 -35 17
-50 57 -50 25 0 33 -4 33 -17 0 -16 2 -16 11 -3 8 11 9 8 5 -15 -5 -26 -5 -27
5 -11 9 15 9 24 -1 39 -11 19 -10 19 20 13 26 -5 31 -3 26 9 -3 8 1 30 9 49 8
20 15 43 15 52 0 16 -1 16 -19 0 -10 -9 -21 -31 -25 -47 -3 -17 -10 -28 -16
-24 -13 8 -13 72 0 80 6 3 10 13 10 21 0 8 -4 14 -10 14 -5 0 -10 -9 -10 -20
0 -11 -4 -20 -10 -20 -5 0 -10 9 -10 20 0 30 -18 24 -22 -7z"/>
<path d="M8686 3864 c-8 -22 -8 -26 4 -19 6 3 5 -5 -1 -23 -6 -18 -6 -37 0
-53 9 -23 10 -22 12 11 l1 35 8 -30 c7 -27 8 -26 8 15 1 50 -21 94 -32 64z"/>
<path d="M8740 3648 c-19 -66 -20 -79 -6 -100 13 -18 14 -18 21 4 4 13 9 34
11 47 2 13 8 29 14 35 16 16 12 30 -5 16 -17 -14 -21 0 -4 17 7 7 6 12 -4 16
-10 4 -18 -7 -27 -35z m20 -38 c0 -5 -5 -10 -11 -10 -5 0 -7 5 -4 10 3 6 8 10
11 10 2 0 4 -4 4 -10z m-13 -42 c-3 -8 -6 -5 -6 6 -1 11 2 17 5 13 3 -3 4 -12
1 -19z"/>
<path d="M8361 5054 c0 -11 3 -14 6 -6 3 7 2 16 -1 19 -3 4 -6 -2 -5 -13z"/>
<path d="M8293 5034 c1 -11 -4 -18 -10 -16 -7 1 -13 -2 -13 -8 0 -16 30 -11
37 6 3 8 1 20 -5 26 -7 7 -10 4 -9 -8z"/>
<path d="M8250 4976 c0 -9 5 -16 10 -16 6 0 10 4 10 9 0 6 -4 13 -10 16 -5 3
-10 -1 -10 -9z"/>
<path d="M8284 4965 c3 -10 -1 -15 -12 -15 -11 0 -18 -8 -19 -20 -1 -11 2 -20
8 -20 5 0 9 7 9 15 0 9 9 15 25 15 23 0 24 2 13 20 -15 23 -33 27 -24 5z"/>
<path d="M8221 4944 c0 -11 3 -14 6 -6 3 7 2 16 -1 19 -3 4 -6 -2 -5 -13z"/>
<path d="M8170 4888 c-12 -22 -12 -22 6 -6 10 10 15 20 12 24 -4 3 -12 -5 -18
-18z"/>
<path d="M3029 8323 c-13 -16 -12 -17 4 -4 9 7 17 15 17 17 0 8 -8 3 -21 -13z"/>
<path d="M2547 7948 c15 -18 5 -32 -12 -18 -9 8 -14 6 -19 -5 -3 -9 1 -18 9
-21 8 -4 15 -12 15 -20 0 -13 13 -19 33 -15 5 1 6 -8 2 -19 -5 -15 -3 -18 8
-14 15 5 12 54 -4 54 -5 0 -6 7 -3 15 4 8 2 15 -4 15 -5 0 -9 7 -8 16 0 9 -6
19 -14 22 -12 4 -13 3 -3 -10z"/>
<path d="M2468 7885 c-4 -6 -3 -17 1 -24 15 -24 -86 -99 -113 -84 -6 3 -1 -4
11 -17 l21 -23 30 22 c17 11 35 21 41 21 6 0 14 14 18 30 3 17 11 30 17 29 25
-3 37 2 30 12 -3 6 -15 9 -25 6 -13 -3 -19 1 -21 17 -2 11 -6 16 -10 11z"/>
<path d="M2590 7820 c0 -5 5 -10 10 -10 6 0 10 5 10 10 0 6 -4 10 -10 10 -5 0
-10 -4 -10 -10z"/>
<path d="M2576 7796 c10 -8 21 -12 24 -10 5 6 -21 24 -34 24 -6 0 -1 -6 10
-14z"/>
<path d="M2307 7734 c-10 -11 -9 -26 2 -20 5 4 4 -7 -1 -22 -7 -18 -8 -37 -3
-48 8 -15 10 -12 13 19 2 23 8 37 17 37 18 0 12 34 -6 38 -8 1 -18 0 -22 -4z"/>
<path d="M2395 7700 c-3 -5 -12 -7 -20 -3 -9 3 -15 -1 -15 -10 0 -8 7 -17 15
-21 8 -3 15 -1 15 4 0 6 9 10 21 10 16 0 19 -4 14 -21 -7 -19 -6 -20 13 -3 21
17 21 17 -3 36 -26 21 -32 22 -40 8z"/>
<path d="M2275 7690 c-3 -5 -2 -10 4 -10 5 0 13 5 16 10 3 6 2 10 -4 10 -5 0
-13 -4 -16 -10z"/>
<path d="M2460 7660 c-8 -5 -11 -12 -7 -16 4 -4 15 0 24 9 18 18 8 23 -17 7z"/>
<path d="M2221 7627 c-15 -15 -14 -30 2 -21 6 4 9 4 5 -1 -4 -4 -18 -13 -30
-20 -13 -6 -22 -18 -20 -28 2 -10 -4 -17 -13 -17 -8 0 -15 -7 -15 -15 0 -8 -5
-15 -11 -15 -6 0 -8 -7 -5 -16 4 -12 2 -15 -9 -10 -9 3 -19 -3 -25 -14 -16
-30 -12 -37 21 -42 37 -6 64 24 49 53 -17 30 -12 52 9 46 15 -3 20 2 25 24 3
17 12 29 21 29 8 0 15 4 15 9 0 5 12 11 28 13 l27 3 -32 16 c-22 12 -34 14
-42 6z"/>
<path d="M2401 7612 c-1 -13 -7 -22 -13 -21 -24 3 -38 -1 -38 -10 0 -5 9 -7
20 -4 11 3 20 0 20 -6 0 -6 -4 -11 -10 -11 -5 0 -10 -5 -10 -12 0 -6 14 1 30
17 17 16 26 31 22 34 -5 3 -12 13 -15 21 -3 10 -6 7 -6 -8z"/>
<path d="M2196 7355 c-10 -7 -15 -18 -11 -24 10 -17 23 -13 21 7 0 10 6 16 16
16 10 -1 15 2 12 7 -7 12 -16 11 -38 -6z"/>
<path d="M1880 7160 c-6 -11 -8 -20 -6 -20 3 0 10 9 16 20 6 11 8 20 6 20 -3
0 -10 -9 -16 -20z"/>
<path d="M1726 6895 c-3 -8 -1 -15 4 -15 6 0 10 7 10 15 0 8 -2 15 -4 15 -2 0
-6 -7 -10 -15z"/>
<path d="M1676 6774 c-10 -25 -7 -34 9 -28 8 4 15 15 15 25 0 23 -16 25 -24 3z"/>
<path d="M1662 6723 c-10 -4 -10 -8 -1 -19 7 -8 9 -18 5 -21 -4 -4 -12 -1 -17
7 -8 11 -9 9 -4 -10 9 -32 25 -50 25 -27 0 10 6 26 12 37 14 22 2 41 -20 33z"/>
<path d="M1742 6653 c-2 -45 -1 -47 13 -28 15 19 16 17 10 -25 -3 -29 -2 -40
4 -31 5 8 7 21 3 29 -3 10 -1 13 6 8 7 -4 8 2 2 22 -8 29 -28 72 -33 72 -2 0
-4 -21 -5 -47z"/>
<path d="M1578 6584 c-3 -12 0 -34 8 -50 11 -26 12 -27 13 -6 1 12 5 22 11 22
5 0 10 -10 9 -22 0 -39 13 -118 21 -123 5 -3 11 13 15 35 4 22 11 40 17 40 7
0 7 4 0 13 -5 6 -9 24 -7 40 3 25 0 27 -29 27 -24 0 -36 6 -43 22 -9 22 -10
22 -15 2z"/>
<path d="M1685 6590 c-8 -14 3 -30 21 -30 8 0 14 9 14 20 0 21 -24 28 -35 10z"/>
<path d="M1601 6134 c0 -11 3 -14 6 -6 3 7 2 16 -1 19 -3 4 -6 -2 -5 -13z"/>
<path d="M1417 6042 c3 -24 2 -25 -7 -7 -9 16 -9 14 -5 -14 3 -18 5 -39 6 -45
0 -6 4 -2 9 9 11 26 12 72 1 79 -4 3 -6 -7 -4 -22z"/>
<path d="M1392 5970 c0 -14 2 -19 5 -12 2 6 2 18 0 25 -3 6 -5 1 -5 -13z"/>
<path d="M1424 5955 c-3 -8 -4 -20 -2 -27 3 -7 7 -1 10 15 6 29 1 36 -8 12z"/>
<path d="M1547 5963 c-5 -7 -5 -17 -2 -23 3 -5 1 -18 -4 -27 -7 -13 -10 -14
-11 -4 0 8 -2 12 -5 9 -3 -3 -2 -16 3 -29 9 -22 10 -22 21 14 13 40 12 82 -2
60z"/>
<path d="M1356 5799 c-12 -39 -14 -99 -5 -133 7 -27 7 -41 -1 -51 -8 -10 -8
-14 2 -18 10 -4 11 -6 0 -6 -7 -1 -17 9 -22 22 -7 16 -8 12 -3 -18 4 -22 7
-48 7 -58 1 -36 31 -13 34 26 2 20 7 37 12 37 4 0 11 11 14 25 11 43 23 27 30
-37 3 -35 9 -82 12 -105 4 -29 2 -43 -5 -43 -6 0 -11 11 -11 25 0 14 -8 29
-19 34 -17 9 -20 5 -30 -34 -6 -24 -11 -58 -11 -74 0 -29 3 -31 35 -31 21 0
35 5 35 13 0 25 20 -18 21 -48 1 -27 2 -26 10 10 11 56 10 238 -2 205 -7 -21
-8 -19 -4 10 3 19 7 49 10 65 4 28 4 27 -6 -4 -13 -42 -20 -36 -10 9 4 19 7
59 6 88 -1 37 3 52 12 52 8 0 13 -13 13 -35 0 -36 13 -47 24 -19 3 9 6 27 6
40 0 21 -5 24 -35 24 -28 0 -35 4 -35 20 0 11 -4 20 -10 20 -5 0 -10 -7 -10
-16 0 -9 -7 -22 -15 -28 -8 -6 -16 -23 -18 -39 -2 -15 -7 -26 -12 -25 -12 4
-17 58 -5 58 11 0 8 35 -3 46 -4 4 -9 1 -11 -7z m81 -71 c-3 -7 -5 -2 -5 12 0
14 2 19 5 13 2 -7 2 -19 0 -25z m-80 -190 c-3 -8 -6 -5 -6 6 -1 11 2 17 5 13
3 -3 4 -12 1 -19z m102 -115 c-2 -57 -3 -61 -8 -28 -6 39 -3 95 5 95 2 0 3
-30 3 -67z"/>
<path d="M1483 5630 c0 -30 2 -43 4 -27 2 15 2 39 0 55 -2 15 -4 2 -4 -28z"/>
<path d="M1452 5145 c0 -16 2 -22 5 -12 2 9 2 23 0 30 -3 6 -5 -1 -5 -18z"/>
<path d="M1444 5020 c-1 -75 1 -88 9 -64 6 19 6 56 0 95 l-9 64 0 -95z"/>
<path d="M1442 4860 c0 -14 2 -19 5 -12 2 6 2 18 0 25 -3 6 -5 1 -5 -13z"/>
<path d="M1449 4756 c-2 -24 -1 -42 2 -40 9 5 16 84 8 84 -4 0 -9 -20 -10 -44z"/>
<path d="M1458 4659 c-3 -16 -2 -47 2 -67 6 -30 7 -25 8 31 0 72 -3 85 -10 36z"/>
<path d="M1370 4593 c0 -43 1 -45 15 -27 19 26 20 74 0 74 -11 0 -15 -12 -15
-47z"/>
<path d="M1482 4555 c0 -16 2 -22 5 -12 2 9 2 23 0 30 -3 6 -5 -1 -5 -18z"/>
<path d="M1342 4505 c0 -16 2 -22 5 -12 2 9 2 23 0 30 -3 6 -5 -1 -5 -18z"/>
<path d="M1436 4498 c-9 -35 -7 -68 4 -68 6 0 10 20 10 45 0 50 -4 57 -14 23z"/>
<path d="M1461 4504 c0 -11 3 -14 6 -6 3 7 2 16 -1 19 -3 4 -6 -2 -5 -13z"/>
<path d="M1490 4464 c0 -8 5 -12 10 -9 6 3 10 10 10 16 0 5 -4 9 -10 9 -5 0
-10 -7 -10 -16z"/>
<path d="M1341 4444 c0 -11 3 -14 6 -6 3 7 2 16 -1 19 -3 4 -6 -2 -5 -13z"/>
<path d="M1346 4404 c-8 -21 3 -84 15 -84 5 0 9 14 9 30 0 17 -5 30 -11 30 -6
0 -8 9 -4 20 8 24 0 27 -9 4z"/>
<path d="M1460 4340 c0 -5 5 -10 10 -10 6 0 10 5 10 10 0 6 -4 10 -10 10 -5 0
-10 -4 -10 -10z"/>
<path d="M1402 4295 c0 -16 2 -22 5 -12 2 9 2 23 0 30 -3 6 -5 -1 -5 -18z"/>
<path d="M1520 4295 c0 -8 4 -15 10 -15 5 0 7 7 4 15 -4 8 -8 15 -10 15 -2 0
-4 -7 -4 -15z"/>
<path d="M1460 4201 c0 -42 11 -50 40 -31 11 7 12 12 4 18 -7 4 -13 16 -15 26
-8 39 -29 29 -29 -13z"/>
<path d="M1427 4200 c-3 -11 -1 -23 4 -26 5 -3 9 6 9 20 0 31 -6 34 -13 6z"/>
<path d="M1552 4195 c0 -11 4 -33 8 -50 l8 -30 0 30 c0 17 -3 39 -8 50 l-9 20
1 -20z"/>
<path d="M1441 4094 c0 -11 3 -14 6 -6 3 7 2 16 -1 19 -3 4 -6 -2 -5 -13z"/>
<path d="M1521 4082 c-1 -35 14 -72 28 -72 16 0 19 52 5 79 -12 22 -14 23 -15
6 l0 -20 -9 20 c-7 17 -9 14 -9 -13z"/>
<path d="M1565 4090 c-3 -5 -1 -10 4 -10 6 0 11 5 11 10 0 6 -2 10 -4 10 -3 0
-8 -4 -11 -10z"/>
<path d="M1500 3932 c0 -7 5 -12 10 -12 7 0 9 -15 6 -37 -3 -21 -3 -30 0 -20
3 9 10 17 15 17 16 0 10 26 -11 45 -11 10 -20 13 -20 7z"/>
<path d="M1476 3904 c-4 -9 -4 -19 -1 -22 2 -3 7 3 11 12 4 9 4 19 1 22 -2 3
-7 -3 -11 -12z"/>
<path d="M1490 3861 c0 -11 -4 -21 -8 -23 -5 -1 -3 -16 5 -33 l13 -30 -6 34
c-4 20 -2 31 3 28 6 -4 8 4 5 18 -5 30 -12 33 -12 6z"/>
<path d="M1601 3833 c-1 -23 -5 -45 -11 -48 -5 -3 -10 -13 -10 -21 0 -8 5 -14
10 -14 6 0 10 7 10 15 0 8 5 15 11 15 6 0 9 10 8 23 -2 12 0 28 5 35 4 7 5 16
2 19 -3 4 -6 0 -7 -8 0 -8 -4 -6 -9 6 -7 16 -9 11 -9 -22z"/>
<path d="M1526 3835 c-3 -9 -4 -21 0 -26 3 -5 0 -9 -5 -9 -6 0 -11 -10 -11
-22 0 -12 3 -19 6 -15 3 3 5 8 5 11 -1 3 8 15 20 27 21 21 22 40 2 46 -6 2
-13 -4 -17 -12z"/>
<path d="M1624 3725 c4 -22 16 -47 26 -55 9 -8 23 -25 29 -38 13 -24 31 -21
31 4 0 9 -5 12 -11 8 -8 -4 -9 0 -4 15 3 12 3 21 -2 20 -21 -4 -33 2 -33 17 0
9 -10 28 -21 42 l-22 27 7 -40z"/>
<path d="M1540 3668 c0 -24 27 -88 33 -81 4 3 7 19 7 34 0 22 -4 27 -16 22
-13 -5 -15 -2 -9 15 4 13 2 22 -4 22 -6 0 -11 -6 -11 -12z"/>
<path d="M1584 3674 c-9 -4 -8 -13 3 -34 8 -17 12 -34 8 -40 -3 -6 1 -7 10 -4
11 5 15 17 13 42 -3 35 -12 45 -34 36z"/>
<path d="M1761 3555 c-1 -5 6 -23 14 -38 8 -15 12 -35 9 -45 -5 -16 -5 -16 6
0 8 14 6 26 -9 55 -11 21 -20 34 -20 28z"/>
<path d="M1721 3448 c-1 -26 -5 -50 -11 -53 -15 -9 -12 -32 5 -39 10 -3 15 -1
14 7 -1 6 1 28 5 47 4 19 3 46 -3 60 -9 22 -10 20 -10 -22z"/>
<path d="M1799 3460 c-7 -17 10 -60 22 -60 5 0 8 11 7 24 -1 14 -5 23 -9 20
-4 -2 -9 4 -11 13 -3 15 -5 15 -9 3z"/>
<path d="M1665 3420 c3 -5 8 -10 11 -10 2 0 4 5 4 10 0 6 -5 10 -11 10 -5 0
-7 -4 -4 -10z"/>
<path d="M1667 3383 c-12 -11 -8 -30 11 -53 l18 -22 1 22 c1 11 -4 23 -12 26
-8 3 -11 12 -8 20 5 15 1 18 -10 7z"/>
<path d="M1826 3366 c-4 -16 2 -41 16 -69 25 -48 80 -101 93 -89 5 4 5 2 2 -4
-3 -5 3 -23 14 -40 21 -33 25 -49 7 -38 -7 4 -8 3 -4 -4 10 -17 36 -15 36 2 0
7 -7 19 -14 26 -8 6 -20 27 -26 46 -6 18 -16 33 -23 31 -6 -1 -13 7 -15 18 -2
11 -10 23 -18 28 -7 4 -11 15 -7 25 5 14 2 13 -11 -3 -15 -17 -17 -18 -12 -2
4 11 2 16 -5 11 -7 -4 -10 6 -9 27 1 19 2 40 1 47 -2 21 -19 13 -25 -12z"/>
<path d="M1746 3305 c-3 -8 -1 -15 4 -15 6 0 10 7 10 15 0 8 -2 15 -4 15 -2 0
-6 -7 -10 -15z"/>
<path d="M1785 3204 c-24 -23 -26 -27 -12 -42 8 -9 17 -26 20 -37 3 -13 5 -9
6 13 0 17 -3 32 -9 32 -5 0 -10 8 -10 18 1 14 4 13 21 -8 15 -17 19 -34 16
-56 -6 -33 7 -64 20 -50 4 5 2 11 -4 13 -17 6 -17 24 -1 21 7 -2 14 8 16 21 2
15 0 21 -7 17 -6 -4 -11 1 -11 11 0 11 -5 24 -12 31 -9 9 -7 13 5 18 9 3 17
10 17 15 0 17 -27 9 -55 -17z"/>
<path d="M1900 3188 c0 -8 9 -23 20 -33 16 -15 20 -15 20 -3 0 8 -9 23 -20 33
-16 15 -20 15 -20 3z"/>
<path d="M1900 3076 c0 -36 3 -44 17 -42 24 4 28 25 7 40 -10 8 -15 20 -11 30
4 9 2 16 -3 16 -6 0 -10 -20 -10 -44z"/>
<path d="M2016 3057 c3 -9 10 -17 14 -17 5 0 11 -8 13 -17 4 -15 5 -15 6 -2 0
9 -8 24 -19 34 -18 17 -20 17 -14 2z"/>
<path d="M1836 3051 c-5 -7 68 -131 77 -131 1 0 3 12 4 27 1 20 -1 23 -9 12
-7 -10 -8 -7 -4 12 4 19 0 34 -15 50 -19 23 -20 23 -10 2 15 -30 14 -38 -4
-23 -8 7 -15 23 -15 36 0 24 -14 32 -24 15z"/>
<path d="M2006 3003 c-6 -14 -5 -15 5 -6 7 7 10 15 7 18 -3 3 -9 -2 -12 -12z"/>
<path d="M2030 2979 c0 -5 5 -7 10 -4 6 3 10 8 10 11 0 2 -4 4 -10 4 -5 0 -10
-5 -10 -11z"/>
<path d="M2086 2934 c-9 -24 -7 -31 4 -14 9 13 11 13 20 0 5 -8 10 -10 10 -4
0 6 -6 17 -14 23 -11 9 -15 8 -20 -5z"/>
<path d="M2085 2890 c-3 -6 1 -7 9 -4 18 7 21 14 7 14 -6 0 -13 -4 -16 -10z"/>
<path d="M2025 2870 c3 -5 13 -10 21 -10 8 0 14 5 14 10 0 6 -9 10 -21 10 -11
0 -17 -4 -14 -10z"/>
<path d="M2067 2830 c-6 -23 7 -45 22 -36 6 4 11 15 11 26 0 25 -27 33 -33 10z"/>
<path d="M2170 2810 c0 -5 9 -8 20 -7 21 1 18 10 -5 13 -8 1 -15 -2 -15 -6z"/>
<path d="M2280 2676 c0 -14 4 -26 8 -26 11 0 12 39 1 45 -5 4 -9 -5 -9 -19z"/>
<path d="M2190 2655 c0 -8 5 -15 10 -15 6 0 10 7 10 15 0 8 -4 15 -10 15 -5 0
-10 -7 -10 -15z"/>
<path d="M2310 2649 c0 -5 5 -7 10 -4 6 3 10 8 10 11 0 2 -4 4 -10 4 -5 0 -10
-5 -10 -11z"/>
<path d="M2355 2596 c0 -18 3 -22 13 -14 9 8 9 14 1 24 -15 18 -14 18 -14 -10z"/>
<path d="M2280 2570 c0 -5 -8 -10 -18 -10 -20 0 -48 -40 -35 -49 5 -3 12 -14
16 -23 7 -21 27 -24 27 -5 0 7 -5 18 -12 25 -16 16 17 52 49 52 12 0 23 5 23
10 0 6 -11 10 -25 10 -14 0 -25 -4 -25 -10z"/>
<path d="M2438 2483 c7 -3 16 -2 19 1 4 3 -2 6 -13 5 -11 0 -14 -3 -6 -6z"/>
<path d="M2485 2459 c-4 -6 -5 -12 -2 -15 2 -3 7 2 10 11 7 17 1 20 -8 4z"/>
<path d="M2500 2439 c0 -5 5 -7 10 -4 6 3 10 8 10 11 0 2 -4 4 -10 4 -5 0 -10
-5 -10 -11z"/>
<path d="M2400 2411 c0 -6 4 -13 10 -16 6 -3 7 1 4 9 -7 18 -14 21 -14 7z"/>
<path d="M2354 2373 c19 -20 39 -33 43 -29 4 4 0 12 -10 17 -9 6 -15 15 -11
21 4 7 10 5 16 -3 8 -11 9 -11 5 1 -2 8 -11 15 -20 15 -8 0 -19 4 -23 8 -4 4
-14 7 -22 7 -9 0 0 -15 22 -37z"/>
<path d="M2560 2250 c0 -5 5 -10 10 -10 6 0 10 5 10 10 0 6 -4 10 -10 10 -5 0
-10 -4 -10 -10z"/>
<path d="M2720 2180 c0 -5 5 -10 11 -10 5 0 7 5 4 10 -3 6 -8 10 -11 10 -2 0
-4 -4 -4 -10z"/>
<path d="M2607 2127 c13 -13 18 -15 25 -5 13 21 9 26 -16 24 -23 -1 -23 -2 -9
-19z"/>
<path d="M2885 2100 c-3 -6 1 -7 9 -4 9 3 16 1 16 -5 0 -6 5 -11 11 -11 8 0 8
5 -1 15 -14 17 -26 19 -35 5z"/>
<path d="M2765 2090 c3 -5 10 -10 16 -10 5 0 9 5 9 10 0 6 -7 10 -16 10 -8 0
-12 -4 -9 -10z"/>
<path d="M2750 2060 c0 -5 5 -10 10 -10 6 0 10 5 10 10 0 6 -4 10 -10 10 -5 0
-10 -4 -10 -10z"/>
<path d="M3230 1859 c0 -5 5 -7 10 -4 6 3 10 8 10 11 0 2 -4 4 -10 4 -5 0 -10
-5 -10 -11z"/>
<path d="M3220 1801 c0 -11 26 -22 34 -14 12 12 5 23 -14 23 -11 0 -20 -4 -20
-9z"/>
<path d="M3351 1781 c-8 -5 -20 -7 -27 -4 -7 2 -21 0 -31 -6 -15 -9 -14 -10
13 -11 16 0 39 7 50 15 21 16 17 20 -5 6z"/>
<path d="M3520 1710 c0 -5 7 -10 16 -10 8 0 12 5 9 10 -3 6 -10 10 -16 10 -5
0 -9 -4 -9 -10z"/>
<path d="M3490 1689 c0 -5 5 -7 10 -4 6 3 10 8 10 11 0 2 -4 4 -10 4 -5 0 -10
-5 -10 -11z"/>
<path d="M3520 1645 c0 -9 6 -12 15 -9 8 4 12 10 9 15 -8 14 -24 10 -24 -6z"/>
<path d="M3618 1643 c-22 -6 -22 -10 -2 -30 14 -15 15 -14 12 3 -3 17 3 19 45
18 27 0 42 3 35 8 -14 8 -61 9 -90 1z"/>
<path d="M3660 1620 c-23 -7 -23 -8 -3 -9 12 -1 25 4 28 9 3 6 5 10 3 9 -2 -1
-14 -5 -28 -9z"/>
<path d="M3705 1610 c-13 -5 -14 -9 -5 -9 8 0 24 4 35 9 13 5 14 9 5 9 -8 0
-24 -4 -35 -9z"/>
<path d="M3880 1558 c28 -15 96 -24 70 -9 -8 5 -33 11 -55 15 -37 6 -38 6 -15
-6z"/>
<path d="M3848 1538 c6 -6 18 -8 28 -6 14 3 12 5 -9 10 -19 3 -25 2 -19 -4z"/>
<path d="M3970 1530 c-8 -5 -10 -10 -5 -10 6 0 17 5 25 10 8 5 11 10 5 10 -5
0 -17 -5 -25 -10z"/>
<path d="M4010 1492 c-5 -2 -10 -10 -10 -18 0 -11 16 -14 66 -14 62 0 65 1 48
17 -15 16 -76 24 -104 15z"/>
<path d="M4178 1463 c-10 -2 -18 -9 -18 -14 0 -14 20 -11 36 6 16 15 13 16
-18 8z"/>
<path d="M4100 1412 c0 -13 47 -35 59 -28 19 12 -1 36 -30 36 -16 0 -29 -4
-29 -8z"/>
<path d="M4384 1413 c-21 -4 -38 -36 -26 -47 3 -3 21 -6 41 -5 29 0 32 2 16 8
-19 8 -18 9 5 13 23 5 23 5 3 7 -25 1 -31 16 -10 24 14 6 1 6 -29 0z"/>
<path d="M4480 1373 c-13 -15 -12 -16 4 -10 10 4 30 7 44 8 24 0 25 1 7 9 -29
12 -38 11 -55 -7z"/>
<path d="M4580 1370 c-9 -6 -10 -10 -3 -10 6 0 15 5 18 10 8 12 4 12 -15 0z"/>
<path d="M4637 1374 c-13 -13 5 -24 41 -24 22 0 32 4 27 9 -14 13 -59 23 -68
15z"/>
<path d="M4970 1330 c0 -5 9 -10 20 -10 11 0 20 5 20 10 0 6 -9 10 -20 10 -11
0 -20 -4 -20 -10z"/>
<path d="M4800 1310 c0 -6 17 -10 37 -10 43 0 39 9 -6 15 -17 2 -31 0 -31 -5z"/>
<path d="M4885 1310 c-7 -11 9 -11 45 0 24 8 24 8 -7 9 -17 1 -35 -3 -38 -9z"/>
<path d="M4650 1290 c0 -5 5 -10 11 -10 5 0 7 5 4 10 -3 6 -8 10 -11 10 -2 0
-4 -4 -4 -10z"/>
<path d="M4280 1275 c32 -18 37 -18 37 0 0 10 -10 15 -31 15 l-31 -1 25 -14z"/>
<path d="M4337 1266 c3 -4 19 -5 35 -2 16 3 27 2 24 -3 -8 -12 41 -23 66 -15
11 3 18 2 15 -2 -3 -5 11 -10 31 -11 l37 -1 -35 11 c-31 9 -32 11 -12 15 13 2
42 -6 65 -18 23 -13 65 -24 92 -25 28 -2 71 -6 96 -10 30 -4 49 -3 53 4 4 6
23 11 42 11 19 0 34 5 34 10 0 13 -77 13 -85 1 -3 -5 -29 -8 -58 -5 -28 2 -68
6 -87 7 -19 2 -55 10 -79 17 -36 11 -40 15 -25 22 28 12 -45 -1 -78 -14 -15
-5 -33 -8 -40 -5 -7 3 -3 6 9 6 12 1 24 5 27 10 3 4 -25 8 -63 7 -38 0 -67 -5
-64 -10z"/>
<path d="M4608 1264 c13 -9 26 -13 30 -9 8 8 -17 25 -38 25 -9 0 -6 -6 8 -16z"/>
<path d="M4865 1190 c-13 -6 -15 -9 -5 -9 8 0 22 4 30 9 18 12 2 12 -25 0z"/>
<path d="M3719 6273 c-62 -56 -82 -103 -77 -183 4 -80 36 -131 102 -161 54
-24 100 -24 154 2 100 49 132 171 72 276 -41 71 -89 103 -157 103 -47 0 -58
-4 -94 -37z m129 -19 c28 -19 29 -57 2 -84 -36 -36 -84 -20 -95 32 -6 26 -3
35 15 50 27 22 49 23 78 2z"/>
<path d="M4555 5510 c-10 -11 -14 -20 -9 -20 5 0 15 9 22 20 7 11 11 20 9 20
-2 0 -12 -9 -22 -20z"/>
<path d="M4006 5158 c-23 -33 -20 -43 21 -77 88 -73 268 -117 438 -108 128 7
193 23 291 71 85 42 109 66 100 99 -10 40 -33 40 -125 -2 -206 -95 -416 -94
-620 0 -46 21 -85 39 -87 39 -1 0 -10 -10 -18 -22z"/>
<path d="M4300 4843 c-42 -16 -41 -67 2 -89 39 -20 190 -16 226 7 31 20 30 62
-3 77 -26 12 -197 15 -225 5z"/>
<path d="M6855 5191 c-18 -4 -29 -13 -27 -21 21 -94 35 -187 52 -348 11 -106
25 -202 30 -213 14 -26 46 -24 62 4 27 46 12 368 -24 535 -12 56 -19 60 -93
43z"/>
<path d="M7206 5189 c-27 -91 -49 -407 -37 -510 10 -76 20 -95 45 -86 26 10
37 54 47 182 5 66 21 183 35 259 13 77 21 143 16 148 -4 4 -29 11 -55 14 -35
5 -48 3 -51 -7z"/>
<path d="M7707 5159 c-22 -11 -36 -23 -33 -26 3 -3 12 0 21 7 8 7 32 18 52 26
22 7 29 13 18 13 -11 0 -37 -9 -58 -20z"/>
<path d="M6718 5149 l-47 -21 6 -52 c13 -134 34 -252 48 -273 22 -33 51 -30
64 8 19 54 7 349 -14 355 -5 2 -31 -6 -57 -17z"/>
<path d="M7357 5103 c-9 -86 -7 -260 2 -293 9 -34 45 -38 64 -8 21 32 36 112
43 227 l7 97 -34 16 c-76 35 -75 36 -82 -39z"/>
<path d="M6455 4597 c-65 -22 -99 -43 -139 -88 -58 -64 -80 -121 -80 -209 0
-126 55 -218 169 -278 42 -22 63 -26 135 -26 100 -1 153 19 223 83 154 142
108 402 -86 499 -58 29 -165 38 -222 19z m109 -149 c42 -59 -12 -133 -78 -108
-47 18 -58 77 -20 114 24 24 80 20 98 -6z m-231 -163 c11 -106 111 -200 211
-199 104 1 197 81 221 192 9 44 25 31 25 -22 0 -43 -35 -112 -76 -148 -36 -32
-112 -59 -168 -59 -143 -2 -272 137 -240 259 10 35 21 26 27 -23z"/>
<path d="M7523 4601 c-78 -20 -163 -91 -205 -171 -19 -37 -23 -60 -23 -130 0
-74 4 -92 29 -143 57 -112 142 -162 276 -162 73 0 92 4 137 28 76 39 118 81
150 145 36 74 39 181 6 254 -27 60 -94 127 -157 156 -53 25 -159 37 -213 23z
m111 -153 c35 -49 4 -111 -54 -111 -58 0 -89 62 -54 111 11 16 25 22 54 22 29
0 43 -6 54 -22z m204 -123 c40 -88 -35 -221 -147 -261 -48 -17 -144 -17 -185
0 -82 34 -146 122 -146 200 0 56 16 68 25 18 24 -128 144 -220 252 -193 105
27 171 106 176 210 2 57 8 63 25 26z"/>
<path d="M6973 4139 c-36 -23 -58 -72 -43 -99 17 -31 121 -120 142 -120 31 0
148 109 148 138 0 33 -28 78 -57 91 -42 19 -154 13 -190 -10z m138 -9 c8 0 24
-7 35 -16 18 -15 18 -15 -3 -9 -17 5 -23 2 -23 -11 0 -9 -8 -23 -17 -30 -21
-16 -69 -18 -78 -4 -9 14 -21 12 -40 -7 -14 -14 -18 -14 -26 -2 -12 19 -11 32
4 53 14 20 78 37 112 30 11 -2 27 -4 36 -4z"/>
<path d="M5971 4028 c0 -9 -4 -25 -7 -35 -5 -17 -5 -17 6 0 6 10 9 25 7 35 -4
15 -5 15 -6 0z"/>
<path d="M8065 4002 c-3 -20 -10 -43 -14 -51 -11 -16 -51 -5 -51 14 0 8 -5 17
-11 21 -7 4 -9 0 -5 -12 3 -11 7 -41 8 -68 3 -45 6 -51 41 -73 22 -13 44 -22
50 -20 7 2 20 37 31 77 17 66 17 75 3 85 -9 6 -19 23 -22 38 -10 38 -22 33
-30 -11z"/>
<path d="M6072 3967 c-1 -10 -6 -15 -12 -12 -6 4 -10 -9 -10 -32 0 -55 11
-113 21 -113 5 0 7 14 4 30 -3 17 -1 39 4 48 8 13 10 10 9 -16 -1 -42 1 -44
38 -26 27 13 30 19 30 62 l0 47 -21 -20 c-12 -11 -25 -27 -28 -35 -3 -8 -6 1
-7 20 -2 32 -3 33 -10 10 -6 -23 -8 -21 -12 15 -3 22 -5 32 -6 22z m35 -109
c-3 -8 -6 -5 -6 6 -1 11 2 17 5 13 3 -3 4 -12 1 -19z"/>
<path d="M7042 3788 c-64 -93 -157 -129 -237 -91 -34 16 -35 16 -60 -7 -14
-13 -25 -27 -25 -31 0 -15 84 -57 126 -64 57 -9 128 12 181 52 l45 34 22 -19
c72 -68 199 -87 283 -44 23 12 44 26 48 32 9 15 -46 62 -64 54 -107 -46 -174
-21 -262 95 l-26 35 -31 -46z"/>
<path d="M6133 3799 c-18 -12 -33 -24 -33 -27 0 -3 19 -36 41 -74 l41 -68 39
31 c43 34 55 49 39 49 -5 0 -22 25 -37 55 -30 61 -42 65 -90 34z"/>
<path d="M7938 3783 c-65 -100 -63 -87 -22 -118 l36 -28 23 24 c12 13 34 45
48 71 l26 47 -33 20 c-45 28 -49 27 -78 -16z"/>
<path d="M5790 4636 c0 -9 30 -14 35 -6 4 6 -3 10 -14 10 -12 0 -21 -2 -21 -4z"/>
<path d="M5843 4625 c-3 -9 -3 -18 -1 -21 3 -3 8 4 11 16 6 23 -1 27 -10 5z"/>
<path d="M5580 4390 c-8 -5 -11 -12 -7 -17 5 -4 12 -1 17 7 6 8 10 11 10 6 0
-5 -8 -18 -17 -29 -13 -15 -14 -19 -4 -15 8 2 19 12 25 21 14 21 -3 40 -24 27z"/>
<path d="M5875 2710 c-10 -11 -13 -20 -7 -20 7 0 12 5 12 10 0 6 4 10 10 10 5
0 7 -7 4 -15 -4 -8 -1 -15 5 -15 13 0 14 19 3 38 -7 9 -13 8 -27 -8z"/>
<path d="M5824 2658 l-19 -23 23 19 c12 11 22 21 22 23 0 8 -8 2 -26 -19z"/>
</g>
</svg>
